<?xml version="1.0" encoding="utf-8"?>
<!-- Generator: Adobe Illustrator 27.5.0, SVG Export Plug-In . SVG Version: 6.00 Build 0)  -->
<svg version="1.1" xmlns="http://www.w3.org/2000/svg" xmlns:xlink="http://www.w3.org/1999/xlink" x="0px" y="0px"
	 viewBox="0 0 750 500" style="enable-background:new 0 0 750 500;" xml:space="preserve">
<g id="BACKGROUND">
	<rect style="fill:#FFFFFF;" width="750" height="500"/>
</g>
<g id="OBJECTS">
	<g>
		<g>
			<g id="shoes_12_">
				<g>
					<g>
						<path style="fill:#3C7F5F;" d="M194.759,442.663c3.91,4.943,8.341,10.086,14.162,11.207c2.359,0.454,4.789,0.201,7.164,0.538
							c2.375,0.337,4.864,1.442,6.035,3.776c0.606,1.209,0.77,2.8,0.079,3.958c-0.835,1.4-2.537,1.694-4.036,1.781
							c-10.828,0.628-21.778-2.748-32.433-0.454c-0.676,0.145-1.454,0.287-1.984-0.201c-0.48-0.441-0.553-1.22-0.587-1.916
							c-0.31-6.417-0.325-12.853-0.046-19.275"/>
					</g>
					<g>
						<path style="fill:#3C7F5F;" d="M110.201,442.906c-3.771,5.032-8.066,10.284-13.949,11.652
							c-2.384,0.554-4.87,0.417-7.276,0.858c-2.406,0.44-4.894,1.639-5.987,3.984c-0.566,1.214-0.665,2.784,0.088,3.889
							c0.91,1.336,2.657,1.546,4.188,1.563c11.059,0.118,22.07-3.699,33.023-1.937c0.695,0.111,1.493,0.215,2.012-0.288
							c0.47-0.455,0.511-1.223,0.516-1.908c0.042-6.313-0.218-12.632-0.777-18.922"/>
					</g>
				</g>
			</g>
			<g id="jeans_10_">
				<g id="legs_24_">
					<rect x="107.24" y="437.722" style="fill:#38303B;" width="17.607" height="7.332"/>
					<path style="fill:#38303B;" d="M101.146,261.417c3.791,52.993,8.904,183.433,8.904,183.433l12.542,0.543
						c0,0,7.718-73.864,9.165-85.27c1.447-11.405,10.028-82.478,10.028-82.478l42.07,162.316l11.577-1.086
						c0,0-16.074-125.314-21.398-181.603c-0.613-6.476-9.889-32.708-9.889-32.708l-58.571-0.761l-4.327,33.896
						C101.09,258.933,101.058,260.177,101.146,261.417z"/>
					<polygon style="fill:#38303B;" points="198.06,443.692 180.521,445.436 179.948,438.133 197.487,436.388 					"/>
				</g>
				<g style="opacity:0.44;">
					<g>
						<path style="fill:#4C9374;" d="M144.2,236.312c0,1.027-0.832,1.859-1.859,1.859c-1.027,0-1.859-0.833-1.859-1.859
							c0-1.027,0.832-1.859,1.859-1.859C143.367,234.453,144.2,235.285,144.2,236.312z"/>
						<path style="fill:#4C9374;" d="M144.2,246.454c0,1.027-0.832,1.859-1.859,1.859c-1.027,0-1.859-0.832-1.859-1.859
							c0-1.027,0.832-1.859,1.859-1.859C143.367,244.595,144.2,245.427,144.2,246.454z"/>
						<g>
							<path style="fill:#4C9374;" d="M101.648,260.358c3.142-1.157,5.924-2.976,8.307-5.323c2.383-2.347,4.347-5.078,6.295-7.784
								c0.418-0.581-0.545-1.136-0.959-0.561c-1.847,2.566-3.708,5.143-5.947,7.386c-2.282,2.287-4.952,4.092-7.991,5.211
								C100.687,259.532,100.975,260.606,101.648,260.358L101.648,260.358z"/>
						</g>
						<g>
							<path style="fill:#4C9374;" d="M173.968,257.01c-5.545-2.054-10.091-6.367-12.507-11.754
								c-0.292-0.651-1.25-0.087-0.959,0.561c2.537,5.657,7.366,10.114,13.171,12.264
								C174.344,258.33,174.633,257.257,173.968,257.01L173.968,257.01z"/>
						</g>
						<g>
							<path style="fill:#4C9374;" d="M136.983,228.694c0.422,10.146,0.843,20.291,1.265,30.437c0.03,0.712,1.141,0.716,1.111,0
								c-0.422-10.146-0.844-20.291-1.265-30.437C138.064,227.982,136.953,227.978,136.983,228.694L136.983,228.694z"/>
						</g>
					</g>
				</g>
			</g>
		</g>
		<g>
			<g>
				<path style="fill:#38303B;" d="M127.341,113.499c-7.529-1.999-13.612-8.239-16.1-15.621c-2.487-7.382-1.555-15.703,1.853-22.708
					c2.746-5.646,7.143-10.585,12.751-13.409c5.607-2.824,12.448-3.379,18.225-0.92c6.851,2.915,11.462,9.583,14.041,16.568
					c2.646,7.166,3.483,15.311,0.593,22.382c-2.89,7.071-10.103,12.637-17.718,12.044"/>
			</g>
			<g id="head_31_">
				<g>
					<g>
						<path style="fill:#86514D;" d="M145.383,129.228c-0.451-4.329-1.204-14.176-1.656-18.505
							c-0.022-0.212-0.047-0.432-0.156-0.611c-0.189-0.307-0.565-0.4-0.906-0.452c-2.83-0.434-5.743,0.144-8.558-0.392
							c-2.302-0.439-4.594-1.617-6.877-1.079c-0.231,0.055-0.472,0.135-0.628,0.326c-0.186,0.228-0.206,0.555-0.215,0.857
							c-0.037,1.335-0.017,2.67,0.002,4.005c0.06,4.077,0.294,14.182,0.354,18.26"/>
					</g>
					<g>
						<path style="fill:#794642;" d="M126.602,108.515c0.156-0.191,0.396-0.271,0.628-0.326c2.283-0.538,4.575,0.64,6.877,1.079
							c2.815,0.536,5.728-0.042,8.558,0.392c0.341,0.052,0.717,0.145,0.906,0.452c0.109,0.178,0.134,0.399,0.156,0.611
							c0.224,2.143,0.447,4.286,0.671,6.429c-2.397,1.509-5.054,2.502-7.823,2.646c-3.8,0.198-7.764-1.428-10.158-4.519
							c-0.01-0.634-0.019-1.268-0.028-1.902c-0.02-1.335-0.039-2.67-0.002-4.005C126.396,109.07,126.416,108.743,126.602,108.515z"
							/>
					</g>
				</g>
				<g>
					<ellipse style="fill:#86514D;" cx="135.749" cy="94.792" rx="17.265" ry="22.805"/>
					<g>
						<g>
							<path style="fill:#86514D;" d="M119.428,99.701c-2.126-0.616-3.967-2.379-4.141-4.489c-0.174-2.109,1.713-4.296,3.931-4.167"
								/>
						</g>
						<g>
							<path style="fill:#86514D;" d="M151.532,99.701c2.126-0.616,3.967-2.379,4.141-4.489c0.174-2.109-1.713-4.296-3.931-4.167"/>
						</g>
					</g>
				</g>
			</g>
			<g>
				<g>
					<path style="fill:#38303B;" d="M140.716,85.405c-0.131,0.094,0.004,0.269,0.184,0.297c0.18,0.028,0.36-0.037,0.525-0.095
						c2.014-0.709,4.485-0.703,6.493,0.015c0.308,0.11,0.62,0.239,0.964,0.247c0.344,0.008,0.727-0.157,0.741-0.404
						c0.006-0.106-0.055-0.209-0.129-0.301c-0.312-0.39-0.851-0.659-1.413-0.857c-1.813-0.638-4.047-0.618-5.838,0.052
						c-0.67,0.251-1.304,0.61-1.593,1.111"/>
				</g>
				<g>
					<path style="fill:#38303B;" d="M131.646,85.405c0.13,0.094-0.004,0.269-0.184,0.297c-0.18,0.028-0.36-0.037-0.525-0.095
						c-2.014-0.709-4.485-0.703-6.493,0.015c-0.308,0.11-0.62,0.239-0.964,0.247c-0.344,0.008-0.727-0.157-0.741-0.404
						c-0.006-0.106,0.055-0.209,0.129-0.301c0.312-0.39,0.851-0.659,1.413-0.857c1.813-0.638,4.047-0.618,5.838,0.052
						c0.67,0.251,1.304,0.61,1.593,1.111"/>
				</g>
			</g>
			<g>
				<path style="fill:#794642;" d="M121.668,100.853c0,2,1.703,3.621,3.804,3.621c2.101,0,3.804-1.621,3.804-3.621
					c0-2-1.703-3.621-3.804-3.621C123.37,97.232,121.668,98.853,121.668,100.853z"/>
				<path style="fill:#794642;" d="M142.385,100.853c0,2,1.703,3.621,3.804,3.621c2.101,0,3.804-1.621,3.804-3.621
					c0-2-1.703-3.621-3.804-3.621C144.088,97.232,142.385,98.853,142.385,100.853z"/>
			</g>
			<g>
				<path style="fill:#38303B;" d="M126.091,91.479c0,1.248,0.58,2.26,1.295,2.26c0.715,0,1.295-1.012,1.295-2.26
					c0-1.248-0.58-2.26-1.295-2.26C126.671,89.219,126.091,90.231,126.091,91.479z"/>
				<g>
					<ellipse style="fill:#38303B;" cx="145.514" cy="91.479" rx="1.295" ry="2.26"/>
				</g>
			</g>
			<g>
				<g>
					<path style="fill:#38303B;" d="M111.024,85.866c2.452-0.614,4.88-1.336,7.276-2.163c1.31-0.452,2.613-0.937,3.861-1.556
						c6.388-3.17,10.833-9.646,13.515-16.523c0.231-0.592,0.455-1.211,0.434-1.849c-0.063-1.891-2.122-2.931-3.901-3.18
						c-5.813-0.814-11.729,2.436-15.378,7.305s-5.275,11.124-5.706,17.292"/>
				</g>
				<g>
					<path style="fill:#38303B;" d="M130.1,70.423c5.979,7.223,14.728,12.091,24.018,13.364c0.891,0.122,1.84,0.204,2.652-0.183
						c1.247-0.595,1.767-2.091,1.956-3.46c0.694-5.035-1.519-10.215-5.161-13.76c-3.642-3.545-8.562-5.574-13.575-6.415
						c-2.867-0.481-6.459-0.247-7.789,2.338"/>
				</g>
				<g>
					<path style="fill:#38303B;" d="M130.944,62.11c-1.619,0.249-3.283-0.474-4.453-1.619c-1.17-1.145-1.903-2.669-2.41-4.226
						c-0.477-1.466-0.776-3.015-0.632-4.55c0.404-4.318,4.392-7.707,8.664-8.452c3.613-0.631,7.52,0.382,10.247,2.836
						c2.727,2.453,4.152,6.335,3.476,9.94s-3.509,6.764-7.068,7.652"/>
				</g>
			</g>
			<g>
				<g>
					<g>
						<path style="fill:#38303B;" d="M130.804,89.511c-0.96-0.656-2.281-0.825-3.416-0.793c-1.098,0.031-2.348,0.249-3.214,0.974
							c-0.35,0.293,0.154,0.792,0.501,0.501c0.735-0.615,1.909-0.758,2.827-0.769c0.985-0.012,2.112,0.13,2.945,0.699
							C130.824,90.38,131.179,89.767,130.804,89.511L130.804,89.511z"/>
					</g>
				</g>
				<g>
					<g>
						<path style="fill:#38303B;" d="M142.646,90.122c0.834-0.569,1.96-0.711,2.945-0.699c0.917,0.011,2.092,0.155,2.826,0.769
							c0.348,0.291,0.851-0.208,0.501-0.501c-0.866-0.725-2.116-0.944-3.214-0.974c-1.135-0.032-2.456,0.138-3.416,0.793
							C141.914,89.766,142.268,90.381,142.646,90.122L142.646,90.122z"/>
					</g>
				</g>
			</g>
			<g>
				<g>
					<path style="fill:#794642;" d="M136.033,89.376c-0.367,2.934-0.735,5.869-1.103,8.803c-0.087,0.693-0.174,1.386-0.26,2.078
						c-0.063,0.504-0.317,1.275-0.133,1.765c0.175,0.466,0.685,0.424,1.096,0.412c0.739-0.022,1.477-0.044,2.216-0.065
						c0.455-0.013,0.457-0.722,0-0.709c-0.622,0.018-1.244,0.037-1.866,0.055c-0.116,0.003-0.711,0.097-0.784,0.031
						c-0.076-0.068,0.089-0.766,0.103-0.878c0.158-1.263,0.316-2.527,0.475-3.79c0.322-2.568,0.643-5.135,0.965-7.703
						C136.798,88.925,136.089,88.929,136.033,89.376L136.033,89.376z"/>
				</g>
			</g>
			<g>
				<g>
					<path style="fill:#E66E60;" d="M141.759,105.535c-2.43,3.231-5.012,4.218-8.376,3.363c-1.049-0.267-3.574-2.324-4.065-3.527
						c4.125,1.928,8.424,2.074,12.5-0.033"/>
				</g>
				<g>
					<path style="fill:#FFFFFF;" d="M141.759,105.535c-2.7,1.579-5.957,2.072-10.297,1.098c-0.983-0.221-1.964-0.651-2.456-1.368
						c4.125,1.149,9.058,1.181,13.134-0.075L141.759,105.535z"/>
				</g>
			</g>
		</g>
		<g>
			<path style="fill:#86514D;" d="M187.837,157.502c4.886,9.58,8.054,16.428,11.361,24.858c1.087,2.77,2.486,6.293,2.691,9.405
				c0.205,3.112-0.68,7.748-3.315,8.854c-3.905,1.64-13.659,5.273-16.002,0.907c-6.992-13.028-3.759-26.046-9.973-37.526"/>
			<path style="fill:#86514D;" d="M82.82,158.929c-5.393,9.304-8.923,15.973-12.677,24.213c-1.233,2.707-2.966,6.259-3.445,9.341
				c-0.593,3.813-0.544,9.318,2.028,10.565c3.811,1.847,10.104,0.261,12.678-3.972c7.68-12.635,13.971-24.62,20.791-35.751"/>
			<g id="tshirt_4_">
				<g>
					<path style="fill:#86514D;" d="M111.848,131.226c12.828-5.574,27.727-7.2,40.894-2.484c4.155,1.488,8.458,4.001,9.752,8.22
						c1.234,4.023-0.688,8.373-3.309,11.666c-5.079,6.382-13.014,10.399-21.164,10.713c-6.012,0.232-11.944-1.446-17.551-3.628
						c-2.67-1.039-5.33-2.218-7.547-4.033c-2.217-1.814-3.969-4.349-4.303-7.194c-0.359-3.057,0.915-6.042,2.162-8.856"/>
				</g>
				<g>
					<path style="fill:#F2E2C8;" d="M194.151,165.498c-4.286-11.85-10.68-23.781-21.215-29.593c-1.337-1.002-3.75-2.461-5.747-3.381
						c-6.131-2.824-7.522-3.296-14.537-4.564c-1.344-0.243-2.969,1.884-6.761,2.705c-9.267,2.004-18.983,0.806-27.997-2.149
						l-0.849-0.416c-6.391,1.639-12.507,4.409-17.995,8.149c-0.934,0.637-1.877,1.34-2.666,2.16l-0.027-0.133
						c-5.168,5.031-9.733,10.681-13.566,16.791c-0.689,1.098-1.378,2.301-1.303,3.596c0.051,0.873,0.448,1.684,0.841,2.466
						c3.089,6.141,6.423,12.159,9.991,18.035c0.788,1.297,2.545,1.671,3.754,0.755c0.487-0.369,0.948-0.77,1.395-1.188
						c1.518,14.913,3.114,29.846,4.134,44.634c0.097,1.402,0.232,2.907,1.116,3.98c1.268,1.541,3.685,1.588,5.651,1.517
						c19.782-0.706,37.993,0.34,57.498-0.039c2.807-0.055,5.127-1.955,5.409-4.821c1.407-14.276,2.568-28.392,3.543-42.62
						c0.185,0.181,0.368,0.349,0.546,0.492c1.679,1.623,4.87-0.63,6.601-2.15c3.578-3.142,7.156-6.284,10.735-9.426
						c0.782-0.687,1.597-1.425,1.821-2.361C194.715,167.131,194.439,166.294,194.151,165.498z"/>
				</g>
				<g>
					<path style="fill:#5B78A4;" d="M149.064,161.929c0.19,5.139,0.495,11.051,0.729,16.488c0.096,2.236,1.895,4.003,4.131,4.1
						c2.25,0.097,4.497,0.089,6.753,0.049c2.35-0.041,4.236-1.956,4.217-4.307c-0.043-5.414-0.181-11.114-0.322-16.321"/>
				</g>
			</g>
			<g>
				<g>
					<g>
						<path style="fill:#3C7F5F;" d="M155.108,164.943c-0.861-3.891-0.167-7.951,0.724-11.847
							c3.188-13.945,9.167-27.731,19.739-37.613c-11.764,14.135-17.59,32.863-15.848,50.953"/>
					</g>
					<g>
						<path style="fill:#3C7F5F;" d="M157.207,165.115c2.834-16.371,11.537-31.745,24.23-42.8c-1.698,2.541-3.396,5.082-5.094,7.622
							c-6.311,9.445-12.897,19.962-11.489,31.123"/>
					</g>
					<g>
						<g>
							<path style="fill:#3C7F5F;" d="M161.234,164.449c1.572-2.563,5.675-2.515,8.013-0.622c2.337,1.893,3.306,4.936,3.989,7.836
								c1.4,5.942,2.099,12.059,4.012,17.859c0.74,2.243,1.7,4.491,3.399,6.155c1.699,1.664,4.283,2.635,6.578,1.898
								c3.013-0.968,4.444-4.349,4.916-7.419c0.964-6.265-0.478-12.649-2.648-18.597c-1.863-5.106-4.41-10.199-8.748-13.554
								c-4.338-3.356-10.841-4.514-15.474-1.499c-4.309,2.805-5.872,8.177-7.117,13.091"/>
						</g>
						<g>
							<g>
								<path style="fill:#2D6E56;" d="M186.214,190.889c-2.552-5.274-2.437-11.267-2.797-16.981
									c-0.332-5.269-1.06-11.128-4.701-15.248c-1.933-2.187-4.649-3.647-7.616-3.187c-0.709,0.11-0.408,1.188,0.297,1.079
									c2.84-0.44,5.422,1.385,7.06,3.553c1.577,2.088,2.483,4.643,3.029,7.179c1.125,5.221,0.792,10.619,1.464,15.896
									c0.365,2.867,1.034,5.663,2.298,8.274C185.561,192.101,186.526,191.535,186.214,190.889L186.214,190.889z"/>
							</g>
						</g>
						<g>
							<g>
								<path style="fill:#2D6E56;" d="M181.558,187.854c0.261-2.612,1.03-5.161,2.234-7.492c0.33-0.639-0.635-1.205-0.966-0.565
									c-1.301,2.517-2.105,5.238-2.387,8.056C180.368,188.57,181.487,188.564,181.558,187.854L181.558,187.854z"/>
							</g>
						</g>
						<g>
							<g>
								<path style="fill:#2D6E56;" d="M179.195,179.212c0.628-2.515,1.835-4.858,3.528-6.823c0.468-0.543-0.32-1.337-0.791-0.791
									c-1.819,2.111-3.14,4.61-3.815,7.316C177.941,179.613,179.02,179.911,179.195,179.212L179.195,179.212z"/>
							</g>
						</g>
						<g>
							<g>
								<path style="fill:#2D6E56;" d="M177.638,169.867c0.931-1.901,2.109-3.669,3.516-5.252c0.201-0.226,0.222-0.569,0-0.791
									c-0.204-0.204-0.589-0.227-0.791,0c-1.469,1.652-2.718,3.492-3.691,5.478c-0.133,0.271-0.073,0.605,0.201,0.765
									C177.119,170.212,177.505,170.139,177.638,169.867L177.638,169.867z"/>
							</g>
						</g>
						<g>
							<g>
								<path style="fill:#2D6E56;" d="M184.232,185.579c0.075,0.025,0.15,0.05,0.225,0.078c0.037,0.014,0.074,0.028,0.111,0.043
									c0.047,0.018,0.093,0.038,0.02,0.007c0.145,0.063,0.288,0.131,0.427,0.205c0.278,0.148,0.545,0.319,0.795,0.511
									c-0.041-0.031-0.043-0.034-0.002,0c0.036,0.03,0.073,0.06,0.109,0.09c0.06,0.051,0.119,0.103,0.177,0.156
									c0.11,0.101,0.215,0.206,0.317,0.316c0.053,0.058,0.105,0.116,0.156,0.176c0.025,0.03,0.05,0.06,0.075,0.09
									c-0.001-0.001,0.089,0.112,0.044,0.054c-0.045-0.058,0.033,0.045,0.041,0.056c0.023,0.031,0.046,0.063,0.068,0.095
									c0.049,0.07,0.097,0.142,0.143,0.215c0.157,0.246,0.505,0.369,0.765,0.201c0.247-0.159,0.369-0.501,0.201-0.765
									c-0.787-1.234-1.986-2.15-3.375-2.606c-0.278-0.091-0.623,0.106-0.688,0.391
									C183.771,185.198,183.934,185.481,184.232,185.579L184.232,185.579z"/>
							</g>
						</g>
					</g>
					<g>
						<g>
							<path style="fill:#4C9374;" d="M157.415,165.705c0.667-4.589,1.761-9.237,4.324-13.145c2.563-3.908,6.833-6.989,11.557-7.151
								c5.004-0.171,9.521,2.85,13.078,6.279c5.879,5.668,10.248,12.828,12.568,20.597c0.456,1.527,0.837,3.128,0.585,4.705
								c-0.252,1.577-1.273,3.134-2.829,3.608c-2.449,0.746-4.754-1.324-6.436-3.205c-2.952-3.3-5.904-6.599-8.855-9.899
								c-2.051-2.293-4.137-4.616-6.747-6.279c-2.609-1.663-5.854-2.612-8.889-1.876c-3.035,0.736-5.665,3.468-5.576,6.526"/>
						</g>
						<g>
							<g>
								<path style="fill:#2D6E56;" d="M158.78,164.905c1.045-6.187,5.747-12.253,12.025-13.782c7.056-1.719,12.65,4.557,15.954,9.9
									c2.064,3.338,3.897,6.822,6.464,9.817c0.469,0.547,1.257-0.247,0.791-0.791c-4.852-5.66-7.117-13.298-13.416-17.711
									c-2.679-1.876-5.947-2.99-9.232-2.467c-3.364,0.536-6.495,2.613-8.801,5.055c-2.525,2.674-4.251,6.052-4.864,9.681
									C157.583,165.312,158.66,165.615,158.78,164.905L158.78,164.905z"/>
							</g>
						</g>
						<g>
							<g>
								<path style="fill:#2D6E56;" d="M184.417,163.568c-0.88-3.035,1.248-7.071-1.651-9.459c-0.551-0.454-1.347,0.333-0.791,0.791
									c1.112,0.915,1.329,2.386,1.291,3.75c-0.049,1.752-0.428,3.489,0.072,5.215
									C183.538,164.556,184.618,164.262,184.417,163.568L184.417,163.568z"/>
							</g>
						</g>
						<g>
							<g>
								<path style="fill:#2D6E56;" d="M178.785,158.09c-1.195-2.357,0.369-5.694-1.953-7.573c-0.237-0.191-0.559-0.227-0.791,0
									c-0.199,0.194-0.234,0.601,0,0.791c1.007,0.815,1.067,2.12,1.104,3.323c0.041,1.369,0.041,2.773,0.674,4.023
									C178.145,159.297,179.111,158.732,178.785,158.09L178.785,158.09z"/>
							</g>
						</g>
						<g>
							<g>
								<path style="fill:#2D6E56;" d="M179.953,152.549c1.183,0.085,2.366,0.171,3.549,0.257c0.292,0.021,0.572-0.272,0.559-0.559
									c-0.014-0.321-0.246-0.537-0.559-0.559c-1.183-0.086-2.366-0.171-3.549-0.257c-0.292-0.021-0.572,0.272-0.559,0.559
									C179.408,152.311,179.64,152.526,179.953,152.549L179.953,152.549z"/>
							</g>
						</g>
						<g>
							<g>
								<path style="fill:#2D6E56;" d="M186.649,159.761c1.281-0.046,2.509,0.142,3.721,0.569c0.285,0.1,0.612-0.114,0.688-0.391
									c0.085-0.309-0.105-0.587-0.391-0.688c-1.284-0.453-2.658-0.658-4.019-0.609c-0.302,0.011-0.559,0.249-0.559,0.559
									C186.089,159.496,186.346,159.772,186.649,159.761L186.649,159.761z"/>
							</g>
						</g>
						<g>
							<g>
								<path style="fill:#2D6E56;" d="M173.101,150.78c0.203-0.263,0.425-0.509,0.667-0.736c0.125-0.117,0.254-0.228,0.387-0.335
									c0.075-0.061-0.01,0.006,0.036-0.028c0.029-0.021,0.058-0.043,0.087-0.064c0.073-0.053,0.147-0.104,0.222-0.154
									c0.279-0.184,0.571-0.346,0.875-0.484c0.033-0.015,0.066-0.029,0.099-0.044c-0.085,0.037,0.025-0.01,0.041-0.016
									c0.075-0.03,0.152-0.059,0.228-0.086c0.17-0.06,0.343-0.113,0.518-0.159c0.283-0.074,0.483-0.403,0.391-0.688
									c-0.094-0.291-0.385-0.471-0.688-0.391c-1.43,0.377-2.748,1.221-3.655,2.393c-0.179,0.231-0.242,0.569,0,0.791
									C172.51,150.963,172.91,151.027,173.101,150.78L173.101,150.78z"/>
							</g>
						</g>
					</g>
				</g>
				<g>
					<g>
						<g>
							<path style="fill:#2D6E56;" d="M129.014,146.884c1.547-5.123-0.42-11.113-4.702-14.323c0.105,5.265,1.549,10.498,4.16,15.072
								"/>
						</g>
						<g>
							<path style="fill:#3C7F5F;" d="M131.46,147.694c4.137-4.576,5.431-11.528,3.219-17.286
								c-2.415,5.046-3.926,10.524-4.438,16.094"/>
						</g>
						<g>
							<path style="fill:#2D6E56;" d="M131.942,146.546c3.198-1.029,5.629-4.109,5.885-7.458c-3.583,1.375-6.639,4.079-8.441,7.468"
								/>
						</g>
						<g>
							<path style="fill:#4C9374;" d="M130.996,147.556c2.129-3.881,2.197-8.82,0.175-12.758c-1.93,3.45-2.464,7.655-1.456,11.478"
								/>
						</g>
					</g>
					<g>
						<g>
							<path style="fill:#E5673F;" d="M129.206,147.367c1.921-1.444,4.897,0.139,5.719,2.397c0.822,2.258,0.165,4.758-0.532,7.058
								c-3.147,10.386-7.03,20.532-10.909,30.668c-1.162-0.078-1.531-1.588-1.573-2.752c-0.414-11.366,0.163-22.768,1.724-34.034
								c0.151-1.089,0.338-2.238,1.047-3.077c0.71-0.839,2.129-1.176,2.903-0.395"/>
						</g>
						<g>
							<g>
								<g>
									<path style="fill:#BF4928;" d="M127.847,150.325c-1.114-0.174-2.227-0.348-3.341-0.521
										c-0.366-0.057-0.782,0.093-0.874,0.496c-0.077,0.34,0.104,0.813,0.496,0.874c1.114,0.174,2.227,0.348,3.341,0.521
										c0.366,0.057,0.782-0.093,0.874-0.496C128.42,150.859,128.239,150.386,127.847,150.325L127.847,150.325z"/>
								</g>
							</g>
							<g>
								<g>
									<path style="fill:#BF4928;" d="M133.738,156.144c-1.033-0.145-2.066-0.29-3.099-0.435
										c-0.198-0.028-0.368-0.034-0.547,0.072c-0.147,0.086-0.288,0.255-0.326,0.424c-0.076,0.335,0.103,0.819,0.496,0.874
										c1.033,0.145,2.066,0.29,3.099,0.435c0.198,0.028,0.368,0.034,0.547-0.072c0.147-0.086,0.288-0.255,0.326-0.424
										C134.311,156.683,134.132,156.199,133.738,156.144L133.738,156.144z"/>
								</g>
							</g>
							<g>
								<g>
									<path style="fill:#BF4928;" d="M125.733,158.909c-0.844-0.161-1.7-0.266-2.558-0.307c-0.372-0.018-0.727,0.34-0.71,0.71
										c0.018,0.4,0.312,0.691,0.71,0.71c0.49,0.024,0.978,0.068,1.463,0.133c-0.063-0.008-0.126-0.017-0.189-0.025
										c0.303,0.042,0.606,0.091,0.906,0.148c0.19,0.036,0.376,0.029,0.547-0.072c0.147-0.086,0.288-0.255,0.326-0.424
										C126.309,159.432,126.123,158.983,125.733,158.909L125.733,158.909z"/>
								</g>
							</g>
							<g>
								<g>
									<path style="fill:#BF4928;" d="M130.993,164.889c-0.79-0.082-1.58-0.165-2.37-0.247c-0.17-0.018-0.386,0.092-0.502,0.208
										c-0.123,0.123-0.216,0.325-0.208,0.502c0.008,0.184,0.069,0.374,0.208,0.502c0.147,0.135,0.305,0.188,0.502,0.208
										c0.79,0.082,1.58,0.165,2.37,0.247c0.17,0.018,0.386-0.092,0.502-0.208c0.123-0.123,0.216-0.325,0.208-0.502
										c-0.008-0.184-0.068-0.374-0.208-0.502C131.349,164.962,131.191,164.91,130.993,164.889L130.993,164.889z"/>
								</g>
							</g>
							<g>
								<g>
									<path style="fill:#BF4928;" d="M124.266,169.07c-0.52-0.132-1.041-0.264-1.561-0.396c-0.181-0.046-0.385-0.023-0.547,0.072
										c-0.147,0.086-0.288,0.255-0.326,0.425c-0.041,0.182-0.032,0.386,0.072,0.547c0.099,0.154,0.243,0.28,0.425,0.327
										c0.52,0.132,1.04,0.264,1.561,0.396c0.181,0.046,0.385,0.023,0.547-0.072c0.147-0.086,0.288-0.255,0.326-0.424
										c0.041-0.182,0.032-0.386-0.072-0.547C124.591,169.242,124.447,169.116,124.266,169.07L124.266,169.07z"/>
								</g>
							</g>
							<g>
								<g>
									<path style="fill:#BF4928;" d="M127.836,173.868c-0.181-0.009-0.361-0.025-0.541-0.049
										c0.063,0.008,0.126,0.017,0.189,0.025c-0.391-0.053-0.775-0.142-1.15-0.266c-0.353-0.117-0.792,0.135-0.874,0.496
										c-0.089,0.391,0.118,0.749,0.496,0.874c0.606,0.2,1.243,0.309,1.88,0.34c0.372,0.018,0.727-0.34,0.71-0.71
										C128.529,174.178,128.234,173.887,127.836,173.868L127.836,173.868z"/>
								</g>
							</g>
							<g>
								<g>
									<path style="fill:#BF4928;" d="M132.092,146.374c-1.576,0.304-3.271,0.13-4.748-0.511
										c-0.352-0.153-0.762-0.104-0.972,0.255c-0.176,0.3-0.099,0.818,0.255,0.972c1.854,0.805,3.856,1.037,5.843,0.654
										c0.377-0.073,0.592-0.525,0.496-0.874C132.857,146.476,132.469,146.301,132.092,146.374L132.092,146.374z"/>
								</g>
							</g>
						</g>
					</g>
				</g>
				<g>
					<g>
						<g>
							<path style="fill:#2D6E56;" d="M109.578,144.963c-1.2-6.667-7.842-12.015-15.879-12.785
								c3.585,5.753,9.007,10.602,15.616,13.965"/>
						</g>
						<g>
							<path style="fill:#3C7F5F;" d="M109.551,145.917c3.247-6.99,2.224-15.766-2.543-21.822
								c-1.019,6.915-0.798,14.011,0.649,20.85"/>
						</g>
						<g>
							<path style="fill:#2D6E56;" d="M112.412,143.133c4.232-4.292,5.538-11.21,3.164-16.749
								c-4.557,5.163-7.171,12.002-7.22,18.888"/>
						</g>
						<g>
							<path style="fill:#4C9374;" d="M111.159,145.855c0.163-7.941-3.832-15.852-10.318-20.436
								c-0.204,7.089,2.441,14.221,7.217,19.463"/>
						</g>
					</g>
					<g>
						<g>
							<path style="fill:#FFB850;" d="M109.773,144.254c1.237-2.595,5.27-2.564,7.392-0.625c2.122,1.939,2.809,4.954,3.344,7.778
								c2.414,12.755,3.916,25.663,5.416,38.558c-1.274,0.561-2.503-0.837-3.192-2.047c-6.733-11.822-12.435-24.231-17.019-37.041
								c-0.443-1.238-0.881-2.56-0.594-3.843c0.288-1.283,1.607-2.425,2.859-2.026"/>
						</g>
						<g>
							<g>
								<g>
									<path style="fill:#E0853D;" d="M109.959,148.289c-1.277,0.432-2.554,0.865-3.831,1.297
										c-0.351,0.119-0.619,0.494-0.496,0.874c0.113,0.349,0.497,0.624,0.874,0.496c1.277-0.432,2.554-0.865,3.831-1.297
										c0.351-0.119,0.619-0.494,0.496-0.874C110.72,148.436,110.336,148.161,109.959,148.289L109.959,148.289z"/>
								</g>
							</g>
							<g>
								<g>
									<path style="fill:#E0853D;" d="M119.429,151.196c-1.176,0.418-2.351,0.837-3.527,1.255c-0.349,0.124-0.62,0.49-0.496,0.874
										c0.111,0.344,0.499,0.63,0.874,0.496c1.176-0.418,2.351-0.837,3.527-1.255c0.349-0.124,0.62-0.49,0.496-0.874
										C120.191,151.348,119.803,151.063,119.429,151.196L119.429,151.196z"/>
								</g>
							</g>
							<g>
								<g>
									<path style="fill:#E0853D;" d="M112.471,158.561c-0.971,0.293-1.918,0.659-2.838,1.085
										c-0.338,0.156-0.449,0.671-0.255,0.972c0.225,0.349,0.61,0.422,0.972,0.255c0.106-0.049,0.213-0.098,0.319-0.145
										c0.061-0.027,0.122-0.054,0.184-0.08c0.04-0.017,0.184-0.086,0.015-0.007c0.211-0.098,0.434-0.177,0.652-0.26
										c0.438-0.166,0.881-0.315,1.329-0.45c0.355-0.107,0.616-0.503,0.496-0.874
										C113.229,158.698,112.852,158.446,112.471,158.561L112.471,158.561z"/>
								</g>
							</g>
							<g>
								<g>
									<path style="fill:#E0853D;" d="M121.575,161.911c-0.883,0.35-1.767,0.701-2.65,1.051c-0.178,0.071-0.324,0.155-0.424,0.326
										c-0.089,0.152-0.127,0.377-0.072,0.547c0.108,0.334,0.504,0.643,0.874,0.496c0.883-0.35,1.767-0.701,2.65-1.051
										c0.178-0.071,0.324-0.155,0.424-0.326c0.089-0.152,0.127-0.377,0.072-0.547
										C122.341,162.073,121.945,161.764,121.575,161.911L121.575,161.911z"/>
								</g>
							</g>
							<g>
								<g>
									<path style="fill:#E0853D;" d="M116.542,170.147c-0.625,0.148-1.249,0.297-1.874,0.445
										c-0.362,0.086-0.611,0.518-0.496,0.874c0.122,0.377,0.486,0.588,0.874,0.496c0.625-0.148,1.249-0.297,1.874-0.445
										c0.362-0.086,0.611-0.518,0.496-0.874C117.294,170.266,116.93,170.055,116.542,170.147L116.542,170.147z"/>
								</g>
							</g>
							<g>
								<g>
									<path style="fill:#E0853D;" d="M123.03,173.251c-0.077,0.035-0.154,0.07-0.232,0.103c0.057-0.024,0.113-0.048,0.17-0.072
										c-0.557,0.234-1.139,0.402-1.735,0.5c-0.165,0.027-0.344,0.188-0.425,0.326c-0.089,0.152-0.127,0.377-0.072,0.547
										c0.056,0.172,0.162,0.338,0.326,0.425c0.179,0.094,0.349,0.104,0.547,0.072c0.743-0.122,1.453-0.359,2.137-0.674
										c0.153-0.07,0.284-0.269,0.326-0.425c0.047-0.17,0.026-0.396-0.072-0.547c-0.098-0.152-0.243-0.285-0.424-0.327
										C123.381,173.135,123.212,173.167,123.03,173.251L123.03,173.251z"/>
								</g>
							</g>
							<g>
								<g>
									<path style="fill:#E0853D;" d="M112.359,141.723c-1.539,1.225-3.476,1.967-5.435,2.106c-0.383,0.027-0.71,0.307-0.71,0.71
										c0,0.363,0.326,0.738,0.71,0.71c2.368-0.168,4.585-1.046,6.44-2.523c0.3-0.239,0.25-0.755,0-1.005
										C113.067,141.426,112.66,141.483,112.359,141.723L112.359,141.723z"/>
								</g>
							</g>
						</g>
					</g>
				</g>
				<g>
					<g>
						<g>
							<path style="fill:#3D896A;" d="M150.109,151.409c1.586-3.835,0.536-8.385-1.827-11.796s-5.871-5.854-9.474-7.913
								c0.877,3.677,1.765,7.384,3.376,10.803c1.61,3.42,4.018,6.575,7.311,8.43"/>
						</g>
						<g>
							<path style="fill:#3D896A;" d="M152.381,151.111c2.941-4.813,3.6-10.957,1.745-16.284c-1.191,3.244-2.381,6.487-3.572,9.731
								c-0.899,2.45-1.624,5.636,0.38,7.307"/>
						</g>
						<circle style="fill:#ED7656;" cx="150.846" cy="164.232" r="15.075"/>
					</g>
					<g style="opacity:0.28;">
						<g>
							<path style="fill:#FFFFFF;" d="M152.572,154.431c3.245,0.576,6.119,2.745,7.428,5.795c1.374,3.201,0.813,6.973-1.234,9.749
								c-0.428,0.58,0.543,1.139,0.966,0.565c2.251-3.053,2.79-7.246,1.293-10.746c-1.429-3.342-4.585-5.808-8.156-6.442
								C152.166,153.227,151.863,154.305,152.572,154.431L152.572,154.431z"/>
						</g>
					</g>
				</g>
				<g>
					<g>
						<polygon style="fill:#D8C5AB;" points="106.223,164.86 167.385,164.86 161.466,243.274 111.747,243.274 						"/>
					</g>
					<path style="opacity:0.2;fill:#353535;" d="M111.747,240.95l-5.196-71.892c12.392,0.225,54.87-0.166,54.87-0.166l-52.437,6.37
						l2.872,65.689H111.747z"/>
				</g>
			</g>
			<g>
				<path style="fill:#86514D;" d="M67.12,192.145c-3.934,14.654,9.446,21.897,21.423,23.813c11.15,1.783,19.353,2.663,31.908,2.726
					c2.258,0.011,5.551,0.492,6.92-1.355c1.349-1.821-0.544-2.683-1.053-4.814c-0.192-0.806-1.638-1.721-5.529-2.536
					c-14.465-3.03-23.665-6.592-37.61-13.185"/>
				<path style="fill:#86514D;" d="M200.684,197.568c0.095,4.444-10.902,11.178-22.613,14.335
					c-10.902,2.939-19.437,4.523-31.917,5.898c-2.245,0.247-5.001,1.218-6.555-0.476c-1.532-1.67,0.261-2.725,0.544-4.898
					c0.107-0.822,0.905-1.117,4.689-2.334c14.069-4.526,21.497-8.645,35.076-15.138l2.831,4.796l6.085-0.338L200.684,197.568z"/>
				<g>
					<path style="fill:#86514D;" d="M117.034,215.641c0.646,0.248,1.745-0.429,2.858-1.182c-0.557-0.486-1.082-0.987-1.56-1.502
						l-0.109-3.44c1.851-0.91,3.792-1.482,5.703-2.176c0.527-0.206,1.028-0.403,1.509-0.59c0.191-0.08,0.383-0.157,0.572-0.243
						c0.006,0.005,0.011,0.009,0.017,0.014c2.31-0.896,4.295-1.655,7.165-2.789c0.561-0.221,1.147-0.447,1.774-0.374
						s1.239,0.425,1.36,1.075c0.11,0.588-0.822,1.309-1.419,1.734c-1.249,0.889-2.125,1.435-3.377,2.317
						c-1.411,0.993-2.068,1.643-1.588,2.329l0.013-0.011c0.811,0.977,13.158-0.914,14.16-0.562c0.57,0.2,1.013,0.331,0.783,0.994
						c-0.46,1.326-3.557,2.207-5.11,2.542c-2.11,0.455-3.586,0.767-5.593,0.954c-0.212,0.02-0.409,0.019-0.422,0.063
						c0.009,0.056,0.439,0.192,0.692,0.214c4.579,0.413,8.924,0.568,13.573,0.471c0.567-0.012,0.881,0.631,0.52,1.107
						c-0.868,1.144-3.139,1.71-4.619,1.942c-2.833,0.444-5.867,0.525-8.846,0.368c4.093,1.134,9.257,0.72,9.176,1.779
						c-0.421,0.53-1.053,0.908-1.833,1.008c-0.002,0-0.004,0-0.005,0c-1.183,0.335-3.799,0.418-6.954,0.205l0.961,0.303
						c0.389,0.123,0.82,0.289,1.024,0.654c0.24,0.431-0.019,0.726-0.343,0.808c-2.049,0.52-12.488-0.638-17.262-4.551
						c-0.298-0.244-0.975-0.969-1.58-1.706C117.717,216.937,117.291,216.324,117.034,215.641z"/>
				</g>
				<g style="opacity:0.76;">
					<g>
						<path style="fill:#7C4746;" d="M132.773,223.571c-0.038-0.081-0.081-0.157-0.11-0.244c-0.062-0.191-0.106-0.409-0.269-0.528
							c-0.144-0.105-0.337-0.101-0.515-0.097c-1.442,0.029-2.889-0.318-4.161-0.999c-0.452-0.242-0.904-0.55-1.115-1.017
							c-0.211-0.467-0.074-1.122,0.4-1.318c-1.91-0.103-3.749-1.128-4.842-2.698c-0.201-0.289-0.384-0.614-0.385-0.966
							c-0.003-0.921,1.119-1.366,2.031-1.496c1.905-0.273,3.85-0.266,5.753,0.02c-0.9-0.387-1.751-0.891-2.524-1.494
							c-0.463-0.361-0.909-0.772-1.159-1.303c-0.25-0.531-0.377-0.842-0.019-1.306c0.346-0.448,0.853-0.557,1.416-0.613
							c0.948-0.093,1.833-0.056,2.726,0.275c-0.502,0.497-0.364,0.596-0.062,1.028l0.013-0.011
							c0.735,0.885,10.047,0.654,12.705,0.632c0.187,0.594,0.968,0.066,0.678,0.639c-0.14,0.276-0.318,0.527-0.506,0.771
							c-1.045,0.446-2.247,0.762-3.044,0.934c-2.11,0.455-3.586,0.767-5.593,0.954c-0.212,0.02-0.409,0.019-0.422,0.063
							c0.009,0.056,0.439,0.192,0.692,0.214c2.169,0.195,4.285,0.329,6.405,0.409c-0.597,1.076-0.961,2.279-1.063,3.505
							c-1.563,0.068-3.146,0.057-4.715-0.026c1.523,0.422,3.193,0.629,4.686,0.778c0.002,0.77,0.074,1.542,0.076,2.31
							c-1.229,0.044-2.726,0.016-4.38-0.096l0.961,0.303c0.389,0.123,0.82,0.289,1.024,0.654c0.24,0.431-0.019,0.726-0.343,0.808
							C136.43,223.83,134.803,223.811,132.773,223.571z"/>
					</g>
					<g>
						<path style="fill:#7C4746;" d="M136.366,204.435c0.11,0.588,0.276,0.49-0.322,0.915c-0.077,0.055-0.207,0.129-0.676,0.486
							c-0.507-0.254-0.782-0.74-0.718-1.289c0.055-0.477,0.251-0.815,0.579-1.135C135.771,203.536,136.26,203.864,136.366,204.435z"
							/>
					</g>
				</g>
				<g>
					<g>
						<path style="fill:#86514D;" d="M143.293,217.747c1.481-0.121,2.926-0.233,4.384-0.423c0.964-0.125-0.158-4.276,0.833-4.494
							c1.268-0.279,4.662,3.336,6.03,2.811c-0.308,0.816-0.845,1.547-1.571,2.021c-6.125,3.994-21.004,4.993-23.983,3.979"/>
					</g>
					<g>
						<path style="fill:#86514D;" d="M153.352,209.518c-2.528-1.243-5.225-1.853-7.785-3.008c-2.053,1.604-0.586,2.282-2.639,3.885
							c-0.22,0.172-2.374,1.14-2.475,1.401c-0.153,0.393-1.058,2.651-0.926,3.099c0.757,2.574,0.134,3.008-1.057,5.093
							c5.63-0.189,11.318-3.309,14.773-7.03"/>
					</g>
					<g>
						<path style="fill:#86514D;" d="M149.035,207.888c-4.182-1.652-6.468-2.501-10.65-4.153c-0.561-0.221-1.147-0.447-1.774-0.374
							c-0.628,0.073-1.239,0.425-1.36,1.075c-0.11,0.588,0.822,1.309,1.419,1.734c1.249,0.889,2.125,1.435,3.377,2.317
							c1.686,1.187,2.319,1.883,1.189,2.738"/>
					</g>
					<g>
						<path style="fill:#86514D;" d="M138.622,218.092c-4.12,2.155-11.41,1.331-11.313,2.587c0.421,0.53,1.053,0.908,1.833,1.008
							c6.579,0.85,16.769-3.682,23.961-5.672"/>
					</g>
					<g>
						<path style="fill:#86514D;" d="M146.17,214.667l-4.548-3.862c-0.811,0.977-13.158-0.914-14.16-0.562
							c-0.57,0.2-1.013,0.331-0.783,0.994c0.46,1.326,3.557,2.207,5.11,2.542c2.11,0.455,3.586,0.767,5.593,0.954
							c0.212,0.02,0.409,0.019,0.422,0.063c-0.009,0.057-0.439,0.192-0.692,0.214c-4.579,0.413-8.924,0.568-13.573,0.471
							c-0.567-0.012-0.881,0.631-0.52,1.107c0.868,1.144,3.139,1.71,4.619,1.942c4.938,0.774,10.492,0.47,15.284-0.335l-0.717-3.274
							C143.513,214.898,144.829,214.816,146.17,214.667z"/>
					</g>
					<g>
						<path style="fill:#86514D;" d="M134.46,223.657c2.049,0.52,12.488-0.638,17.262-4.551c0.566-0.464,2.507-2.661,2.704-3.381
							c-1.092,0.562-4.151-1.698-5.178-1.354c-0.802,0.269,0.411,3.705-0.375,3.892c-1.19,0.284-2.373,0.501-3.586,0.729
							l-10.147,3.203c-0.389,0.123-0.82,0.289-1.024,0.654C133.878,223.28,134.137,223.574,134.46,223.657z"/>
					</g>
				</g>
			</g>
		</g>
	</g>
	<g>
		<g>
			<g>
				<g>
					<path style="fill:#3C7F5F;" d="M567.16,285.599c-1.123-3.826-0.493-7.96,0.365-11.947c3.07-14.27,9.302-28.63,20.875-39.483
						c-12.759,15.225-18.628,34.528-15.966,52.516"/>
				</g>
				<g>
					<path style="fill:#3C7F5F;" d="M561.266,287.802c4.042-16.379,14.69-31.691,29.643-42.629
						c-2.054,2.528-4.108,5.055-6.162,7.583c-7.635,9.396-15.636,19.864-14.604,31.068"/>
				</g>
			</g>
			<g>
				<g>
					<g>
						<path style="fill:#3D896A;" d="M550.359,268.731c0.061,2.853-1.747,5.508-4.112,7.105c-2.365,1.597-5.222,2.288-8.045,2.71
							c1.479-2.138,2.972-4.292,4.857-6.082c1.885-1.79,4.214-3.213,6.788-3.581"/>
					</g>
					<g>
						<path style="fill:#3D896A;" d="M551.741,269.489c0.685,3.818-0.424,7.92-2.941,10.872c0.046-2.376,0.091-4.751,0.137-7.127
							c0.034-1.794,0.364-4.017,2.066-4.589"/>
					</g>
					
						<ellipse transform="matrix(0.9176 -0.3976 0.3976 0.9176 -57.9785 241.7754)" style="fill:#ED7656;" cx="554.028" cy="260.697" rx="10.367" ry="10.367"/>
				</g>
				<g style="opacity:0.28;">
					<g>
						<path style="fill:#FFFFFF;" d="M552.503,268.331c2.578,0.516,5.371-0.303,7.179-2.241c1.803-1.933,2.47-4.768,1.774-7.309
							c-0.19-0.693-1.269-0.399-1.079,0.297c0.589,2.15,0.046,4.58-1.486,6.22c-1.528,1.635-3.896,2.393-6.09,1.954
							C552.097,267.112,551.797,268.19,552.503,268.331L552.503,268.331z"/>
					</g>
				</g>
			</g>
			<g>
				<g>
					<g>
						<path style="fill:#2D6E56;" d="M543.472,247.227c-3.537-7.928-1.599-17.971,4.635-24.012
							c0.909,8.495-0.344,17.212-3.608,25.107"/>
					</g>
					<g>
						<path style="fill:#3C7F5F;" d="M541.583,249.465c-7.594-6.518-11.101-17.441-8.72-27.161
							c4.92,7.626,8.472,16.133,10.437,24.993"/>
					</g>
					<g>
						<path style="fill:#2D6E56;" d="M540.571,247.716c-5.357-1.001-9.899-5.46-10.998-10.798c6.048,1.48,11.52,5.205,15.113,10.291
							"/>
					</g>
					<g>
						<path style="fill:#4C9374;" d="M542.907,249.09c-4.221-5.81-5.342-13.744-2.895-20.496c3.812,5.157,5.532,11.815,4.694,18.173
							"/>
					</g>
				</g>
				<g>
					<g>
						<path style="fill:#FF9B4B;" d="M543.109,247.185c-2.258-1.288-5.236,0.818-5.809,3.353c-0.573,2.535,0.473,5.128,1.535,7.5
							c4.795,10.714,10.345,21.07,15.89,31.416c1.236-0.242,1.426-1.913,1.312-3.167c-1.107-12.252-3.283-24.407-6.495-36.282
							c-0.31-1.147-0.668-2.355-1.544-3.159c-0.876-0.804-2.445-0.971-3.168-0.028"/>
					</g>
					<g>
						<g>
							<g>
								<path style="fill:#E0853D;" d="M545.457,251.567c1.171-0.339,2.342-0.677,3.513-1.016c0.357-0.103,0.615-0.505,0.496-0.874
									c-0.117-0.363-0.491-0.607-0.874-0.496c-1.171,0.339-2.342,0.677-3.513,1.015c-0.357,0.103-0.615,0.506-0.496,0.874
									C544.701,251.433,545.075,251.677,545.457,251.567L545.457,251.567z"/>
							</g>
						</g>
						<g>
							<g>
								<path style="fill:#E0853D;" d="M539.93,258.615c1.089-0.297,2.177-0.593,3.266-0.89c0.358-0.098,0.614-0.509,0.496-0.874
									c-0.119-0.367-0.49-0.601-0.874-0.496c-1.089,0.297-2.177,0.593-3.266,0.89c-0.358,0.098-0.614,0.509-0.496,0.874
									C539.175,258.486,539.545,258.719,539.93,258.615L539.93,258.615z"/>
							</g>
						</g>
						<g>
							<g>
								<path style="fill:#E0853D;" d="M548.896,260.488c0.819-0.267,1.656-0.476,2.504-0.626c0.166-0.029,0.342-0.187,0.424-0.327
									c0.089-0.152,0.127-0.377,0.072-0.547c-0.128-0.395-0.481-0.565-0.874-0.496c-0.848,0.15-1.685,0.359-2.504,0.626
									c-0.353,0.115-0.618,0.497-0.496,0.874C548.137,260.345,548.518,260.612,548.896,260.488L548.896,260.488z"/>
							</g>
						</g>
						<g>
							<g>
								<path style="fill:#E0853D;" d="M543.869,267.676c0.837-0.196,1.673-0.392,2.51-0.588c0.362-0.085,0.611-0.518,0.496-0.874
									c-0.122-0.378-0.486-0.587-0.874-0.496c-0.837,0.196-1.673,0.392-2.51,0.588c-0.362,0.085-0.611,0.518-0.496,0.874
									C543.118,267.558,543.481,267.767,543.869,267.676L543.869,267.676z"/>
							</g>
						</g>
						<g>
							<g>
								<path style="fill:#E0853D;" d="M551.858,271.19c0.54-0.213,1.081-0.425,1.621-0.637c0.178-0.07,0.324-0.156,0.424-0.327
									c0.089-0.152,0.127-0.377,0.072-0.547c-0.056-0.172-0.162-0.338-0.326-0.424c-0.159-0.084-0.373-0.14-0.547-0.072
									c-0.54,0.212-1.081,0.425-1.621,0.637c-0.178,0.07-0.324,0.156-0.424,0.327c-0.089,0.152-0.127,0.377-0.072,0.547
									c0.056,0.172,0.162,0.338,0.326,0.424C551.469,271.203,551.683,271.259,551.858,271.19L551.858,271.19z"/>
							</g>
						</g>
						<g>
							<g>
								<path style="fill:#E0853D;" d="M548.482,276.879c0.675-0.12,1.323-0.345,1.941-0.64c0.153-0.073,0.283-0.267,0.326-0.424
									c0.047-0.17,0.026-0.397-0.072-0.547c-0.098-0.152-0.243-0.285-0.424-0.326c-0.195-0.044-0.367-0.015-0.547,0.072
									c-0.099,0.047-0.198,0.092-0.298,0.135c0.057-0.024,0.113-0.048,0.17-0.072c-0.474,0.199-0.967,0.344-1.473,0.434
									c-0.166,0.029-0.343,0.186-0.425,0.327c-0.089,0.152-0.127,0.377-0.072,0.547c0.056,0.172,0.162,0.338,0.326,0.425
									C548.113,276.901,548.285,276.914,548.482,276.879L548.482,276.879z"/>
							</g>
						</g>
						<g>
							<g>
								<path style="fill:#E0853D;" d="M539.769,247.984c2.076,0.133,4.174-0.383,5.961-1.445c0.785-0.467,0.071-1.696-0.717-1.227
									c-1.586,0.943-3.403,1.369-5.243,1.251c-0.383-0.025-0.71,0.344-0.71,0.71C539.059,247.678,539.385,247.959,539.769,247.984
									L539.769,247.984z"/>
							</g>
						</g>
					</g>
				</g>
			</g>
			<path style="fill:#D8C5AB;" d="M578.204,339.668l-35.343-0.391c-4.674-0.052-8.344-4.022-8.029-8.685l1.867-72.038l48.291,0.468
				l1.426,72.01C586.706,335.749,582.93,339.72,578.204,339.668z"/>
			<path style="fill:none;stroke:#D8C5AB;stroke-width:1.4173;stroke-miterlimit:10;" d="M575.806,259.35
				c-0.091,8.221-29.86,7.891-29.769-0.329c0.091-8.221,6.829-14.811,15.05-14.72S575.897,251.13,575.806,259.35z"/>
		</g>
		<g>
			<g>
				<path style="fill:#F4966B;" d="M608.111,446.503c-0.209-3.357-0.418-6.713-0.627-10.07c-0.082-1.316-0.141-2.727,0.55-3.85
					c1.213-1.97,3.992-2.072,6.305-1.947c0.832,0.045,1.742,0.123,2.339,0.703c0.747,0.725,0.698,1.914,0.597,2.948
					c-0.454,4.632-0.908,9.264-1.362,13.895"/>
				<g>
					<path style="fill:#38303B;" d="M584.449,459.139c5.794,0.234,10.542,0.418,16.336,0.651c1.772,0.072,15.844-0.138,17.869-0.093
						c0.669,0.015,1.405,0.006,1.91-0.461c0.593-0.548,0.629-1.498,0.594-2.332c-0.142-3.298-0.705-6.575-1.669-9.714
						c-0.219-0.714-0.544-1.512-1.219-1.735c-0.621-0.205-1.266,0.167-1.833,0.505c-2.295,1.369-2.452,1.356-5.168,0.72
						c-0.668-0.156-3.265-1.063-3.897-1.34c-0.699-0.307-1.492-0.178-2.236-0.033c-6.418,1.254-12.678,3.414-18.564,6.406
						c-1.336,0.679-2.715,1.46-3.508,2.788c-0.793,1.328-0.734,3.358,0.505,4.219"/>
				</g>
				<path style="fill:#F4966B;" d="M657.403,446.74c-0.546-3.319-1.092-6.637-1.637-9.956c-0.214-1.301-0.415-2.699,0.147-3.884
					c0.987-2.078,3.695-2.451,5.972-2.551c0.819-0.036,1.717-0.047,2.36,0.471c0.804,0.648,0.878,1.836,0.883,2.875
					c0.026,4.652,0.052,9.303,0.079,13.955"/>
				<g>
					<path style="fill:#38303B;" d="M634.46,460.051c5.799,0.004,10.55,0,16.349,0.004c1.774,0.001,15.826-0.766,17.852-0.8
						c0.669-0.012,1.404-0.05,1.89-0.536c0.571-0.571,0.569-1.522,0.501-2.353c-0.272-3.29-0.965-6.542-2.052-9.64
						c-0.248-0.705-0.603-1.489-1.287-1.685c-0.629-0.181-1.259,0.217-1.812,0.577c-2.239,1.459-2.396,1.452-5.136,0.924
						c-0.673-0.13-3.304-0.932-3.947-1.184c-0.711-0.279-1.498-0.119-2.235,0.056c-6.363,1.507-12.532,3.914-18.295,7.137
						c-1.308,0.731-2.655,1.566-3.395,2.924c-0.74,1.358-0.601,3.385,0.672,4.195"/>
				</g>
			</g>
			<g>
				<g>
					<path style="fill:#2D2730;" d="M632.682,251.943c-3.36,53.843-5.243,110.092-12.767,163.267
						c-0.598,4.226-0.505,21.842-2.202,22.409c-2.373,0.793-4.502,0.838-6.858,0.776c-1.948-0.051-4.157-1.406-4.263-3.535
						c-3.887-77.877-13.945-166.308-8.656-243.897c0.187-2.744,29.177-3.535,29.177-3.535"/>
				</g>
				<g>
					<path style="fill:#38303B;" d="M661.266,233.654c2.963,54.764,6.41,131.56,5.096,186.27
						c-0.105,4.348,0.795,17.172-0.849,17.996c-2.299,1.152-4.44,1.513-6.823,1.801c-1.97,0.238-3.759-1.191-4.117-3.321
						c-13.105-77.908-35.384-159.078-39.204-238.061c-0.135-2.793,31.382-9.05,31.382-9.05"/>
				</g>
			</g>
		</g>
		<g>
			<g>
				<path style="fill:#3C7F5F;" d="M662.895,243.318c-17.746,1.711-35.594,2.457-53.419,1.968
					c-4.774-0.131-9.544-0.356-14.309-0.677c-0.802-0.054-0.613-1.29,0.186-1.236c17.299,1.167,34.673,1.037,51.971-0.059
					c5.147-0.326,10.287-0.742,15.421-1.237C663.545,242,663.697,243.241,662.895,243.318L662.895,243.318z"/>
			</g>
		</g>
		<g>
			<g>
				<path style="fill:#F4966B;" d="M566.085,227.36c-1.876,0.865-6.421,11.698-7.114,13.633c-0.779,2.176-1.456,4.596-0.61,6.756
					c0.961,2.454,3.579,3.814,6.054,4.76c0.812,0.311,1.671,0.605,2.532,0.491c0.86-0.115,1.707-0.771,1.734-1.632
					c0.019-0.63-0.388-1.232-0.303-1.856c0.122-0.906,1.143-1.339,1.862-1.907c1.204-0.951,1.701-2.575,1.65-4.105
					c-0.051-1.531,2.095-13.316,1.577-14.761"/>
			</g>
			<g>
				<path style="fill:#F4966B;" d="M588.71,144.498"/>
			</g>
			<path style="fill:#3C7F5F;" d="M598.639,124.22c-5.86,3.848-12.637,18.734-21.111,50.382c0.069,2.981-2.307,12.957-3.099,15.833
				c-1.267,4.596-2.534,9.191-3.801,13.787c-0.433,1.57-0.872,3.157-1.663,4.58c-0.658,1.186-1.561,2.262-1.93,3.567
				c-0.349,1.232-0.186,2.545-0.304,3.82c-0.399,4.304-3.87,7.67-5.23,11.773c-0.221,0.668-0.379,1.428-0.055,2.053
				c0.341,0.657,1.101,0.959,1.798,1.208c2.191,0.782,4.382,1.564,6.573,2.346c2.919,1.042,6.992,1.671,8.396-1.093
				c0.791-1.557,0.218-3.473,0.685-5.156c0.6-2.164,2.795-3.574,3.493-5.709c0.475-1.453,1.111-4.297,1.182-5.824
				c0.12-2.6,1.812-4.59,2.941-6.935c3.091-6.419,4.72-12.007,7.81-18.426c1.723-3.579,3.471-7.241,3.941-11.185
				c0.989-8.309,19.012-34.279,19.628-42.624c0.47-6.371,2.345-13.274-6.162-14.258C607.989,121.928,603.08,121.303,598.639,124.22z
				"/>
			<path style="fill:#4C9374;" d="M664.041,234.856c0.442-18.473-1.635-63.784-1.575-96.63c0.004-2.401-3.312-9.352-4.766-11.234
				c-1.433-1.855-2.526-6.298-4.766-6.809c-15.621-3.564-25.855-1.991-41.817-1.337c-4.499,0.184-9.904,5.05-11.29,7.124
				c-3.409,5.1-4.349,12.072-5.447,20.766c-3.912,30.989-4.385,59.056-1.796,91.99c0.255,3.245,4.038,8.42,6.898,9.8
				c1.444,0.697,8.876,0.884,10.466,0.924c13.12,0.333,31.897,0.501,49.474-1.758C660.854,247.508,663.743,247.356,664.041,234.856z
				"/>
			<g>
				<g>
					<g>
						<g>
							<path style="fill:#3C7F5F;" d="M631.332,118.967c-2.231,12.744-3.36,25.664-3.339,38.603c0.002,1.09-1.701,1.307-1.703,0.204
								c-0.021-13.095,1.088-26.163,3.346-39.063C629.826,117.627,631.523,117.876,631.332,118.967L631.332,118.967z"/>
						</g>
						<path style="fill:#3C7F5F;" d="M624.356,159.069c0.16,1.335,1.373,2.288,2.708,2.128c1.335-0.16,2.288-1.372,2.128-2.708
							c-0.16-1.335-1.373-2.288-2.708-2.128C625.149,156.522,624.196,157.734,624.356,159.069z"/>
					</g>
					<g>
						<g>
							<path style="fill:#3C7F5F;" d="M614.607,120.767c-2.485,11.777-4.348,23.676-5.587,35.648
								c-0.114,1.097-1.81,0.842-1.696-0.255c1.24-11.972,3.102-23.871,5.587-35.649
								C613.138,119.437,614.836,119.683,614.607,120.767L614.607,120.767z"/>
						</g>
						<path style="fill:#3C7F5F;" d="M606.098,157.45c0.041,1.195,1.043,2.13,2.238,2.089c1.195-0.041,2.13-1.043,2.089-2.238
							c-0.041-1.195-1.043-2.13-2.238-2.089C606.991,155.253,606.056,156.255,606.098,157.45z"/>
					</g>
				</g>
			</g>
			<g>
				<g>
					<g>
						<g>
							<path style="fill:#F2E2C8;" d="M593.565,180.642c-1.647-5.97-3.294-11.941-4.941-17.912c-0.393-1.423-0.739-2.87-1.183-4.278
								c-0.247-0.785-0.586-1.624-1.344-2.049c-0.953-0.535-2.326-0.132-3.338,0.04c-1.409,0.24-2.791,0.594-4.151,1.033
								c-0.936,0.301-0.536,1.784,0.408,1.48c1.088-0.35,2.189-0.651,3.309-0.876c1.157-0.233,3.005-0.93,3.543,0.491
								c0.886,2.338,1.37,4.913,2.035,7.324c1.394,5.052,2.787,10.104,4.181,15.156C592.347,182,593.828,181.597,593.565,180.642
								L593.565,180.642z"/>
						</g>
					</g>
					<polygon style="fill:#F2E2C8;" points="594.172,213.808 612.804,211.237 609.805,174.88 587.211,177.999 					"/>
					
						<rect x="586.221" y="173.718" transform="matrix(-0.9906 0.1367 -0.1367 -0.9906 1215.2556 267.705)" style="fill:#ED5A36;" width="24.426" height="3.745"/>
					<polygon style="fill:#ED5A36;" points="591.659,200.882 589.439,189.461 610.765,186.517 611.721,198.113 					"/>
				</g>
				<g>
					<path style="fill:#F4966B;" d="M666.228,178.172c-1.784,1.179-3.914,1.712-5.992,2.223
						c-18.478,4.543-41.042,9.465-55.53,12.937c-2.498,0.599-4.858,9.244-4.858,9.244c19.047-1.542,42.594-3.366,61.425-7.043
						c4.253-0.831,8.545-1.73,12.505-3.525"/>
					<g>
						<path style="fill:#F4966B;" d="M613.652,200.769c-6.436,2.735-15.273,5.089-21.925,7.281
							c-1.671-0.851-3.003-2.988-2.109-4.676c-0.958-0.472-1.863-2.128-1.32-3.377c0.147-0.337,0.435-0.725,0.391-1.078
							c-0.05-0.398-1.349-1.181-1.369-2.415c-0.016-0.959,0.129-1.506,1.185-2.372c0.517-0.424-0.955-1.605,0.07-2.713
							c0.761-0.822,2.068-0.789,3.175-0.697c5.794,0.483,11.587,0.965,17.381,1.448c1.439,0.12,3.003,0.295,3.968,1.277
							c0.965,0.983,0.712,3.051-0.715,3.391"/>
					</g>
				</g>
				<path style="fill:#3C7F5F;" d="M645.615,123.246c-10.856,9.305,13.708,46.415,15.905,54.171
					c-2.54,1.563-3.801,1.922-6.683,2.687c-4.608,1.223-9.215,2.446-13.823,3.669c-1.574,0.418-3.166,0.838-4.794,0.874
					c-1.356,0.029-2.74-0.208-4.054,0.132c-1.24,0.32-2.292,1.122-3.452,1.663c-3.918,1.826-8.575,0.525-12.804,1.42
					c-0.689,0.146-1.424,0.393-1.801,0.988c-0.396,0.626-0.273,1.434-0.137,2.162c0.429,2.287,0.859,4.573,1.288,6.86
					c0.572,3.046,2.082,6.88,5.177,6.699c1.744-0.102,3.109-1.563,4.798-2.008c2.171-0.573,4.496,0.612,6.691,0.138
					c1.494-0.322,4.271-1.207,5.625-1.916c2.306-1.207,4.877-0.75,7.471-0.957c7.102-0.567,12.749-1.978,19.85-2.546
					c3.96-0.316,8.003-0.653,11.646-2.236c7.674-3.336,8.357-13.758,6.541-21.927c-2.383-10.723-15.66-45.787-22.468-50.213
					C656.479,120.231,651.573,118.14,645.615,123.246z"/>
			</g>
		</g>
		<g>
			<g>
				<g>
					<path style="fill:#38303B;" d="M622.75,99.914c7.233,0.711,14.102-2.52,17.977-7.042c3.875-4.522,5.202-10.142,5.693-15.678
						c0.425-4.789,0.26-9.744-1.924-14.368c-2.184-4.624-6.66-8.904-12.641-10.64c-4.046-1.175-8.44-1.117-12.577-0.595
						c-2.699,0.34-5.433,0.904-7.479,2.239c-1.893,1.235-3.032,3.024-3.872,4.843c-2.953,6.399-2.722,13.526-2.04,20.463
						c0.382,3.888,0.915,7.839,2.824,11.523c1.909,3.685,5.394,7.121,10.135,8.682"/>
				</g>
				<g>
					<g>
						<path style="fill:#F4966B;" d="M632.28,121.057c1.521-1.313,2.602-3.166,2.298-5.354c-0.763-5.501-1.864-13.6-2.396-17.316
							c-0.218-1.528-0.437-3.057-0.715-4.577c-0.063-0.344-0.143-0.716-0.377-0.953c-0.196-0.199-0.461-0.261-0.712-0.294
							c-2.474-0.33-4.65,1.302-6.968,2.09c-2.835,0.964-5.971,0.666-8.841,1.515c-0.345,0.102-0.721,0.255-0.862,0.63
							c-0.082,0.217-0.068,0.472-0.053,0.717c0.27,4.431,1.068,13.834,1.459,19.404c0.088,1.254-0.191,2.997,0.688,3.865
							l3.261-0.006c2.501,2.468,6.175,2.755,8.936,1.021C627.998,121.8,630.644,122.469,632.28,121.057z"/>
						<g>
							<path style="fill:#ED825D;" d="M631.091,92.858c-0.196-0.198-0.461-0.261-0.712-0.294c-2.474-0.33-4.65,1.302-6.968,2.09
								c-2.835,0.964-5.971,0.666-8.841,1.515c-0.345,0.102-0.721,0.255-0.862,0.629c-0.082,0.217-0.068,0.473-0.053,0.717
								c0.151,2.477,0.302,4.953,0.452,7.43c2.767,1.426,5.711,2.229,8.619,2.049c3.992-0.247,7.829-2.599,9.768-6.43
								c-0.104-0.726-0.208-1.451-0.311-2.176c-0.219-1.528-0.437-3.056-0.715-4.577C631.405,93.467,631.325,93.095,631.091,92.858z
								"/>
						</g>
					</g>
					<g>
						<path style="fill:#F4966B;" d="M636.546,86.191c3.144-0.76,6.01-2.824,6.008-5.26c-0.002-3.301-3.257-4.951-6.555-4.748"/>
					</g>
					<g>
						<path style="fill:#F4966B;" d="M636.601,88.875c-3.03,11.918-11.562,13.306-20.46,16.002
							c-1.572,0.476-4.217,0.645-5.907,0.434c-4.148-0.518-6.132-4.444-7.042-7.759c-1.584-5.77-2.461-11.645-2.614-17.511
							c-0.105-4.037,0.157-8.165,2.068-11.837c1.91-3.671,5.736-6.844,10.625-7.553c6.089-0.882,12.277,2.177,16.479,6.014
							c6.201,5.662,9.513,13.638,7.22,20.749"/>
					</g>
					<g>
						<path style="fill:#F4966B;" d="M601.168,77.516c-0.204,4.326-0.342,3.599-0.873,6.045c-0.057,0.265-0.687,2.344-2.178,3.248
							c-1.176,0.713-1.539,2.464-0.583,3.496c0.532,0.574,1.069,0.846,1.842,1.032c1.092,0.262,2.184,0.028,2.855-0.856"/>
					</g>
				</g>
				<g>
					<path style="fill:#38303B;" d="M612.534,73.334c0.137,0.095-0.006,0.299-0.196,0.342c-0.19,0.044-0.378-0.016-0.552-0.069
						c-2.117-0.645-4.72-0.465-6.84,0.474c-0.325,0.144-0.655,0.309-1.018,0.342c-0.362,0.034-0.764-0.123-0.777-0.396
						c-0.006-0.118,0.06-0.236,0.138-0.343c0.331-0.455,0.901-0.792,1.493-1.051c1.915-0.836,4.267-0.972,6.15-0.353
						c0.704,0.231,1.369,0.585,1.671,1.122"/>
				</g>
				<g>
					<path style="fill:#ED825D;" d="M623.425,87.988c0.136,2.702-2.174,4.949-5.159,5.018c-2.985,0.069-5.515-2.065-5.651-4.767
						c-0.136-2.702,2.174-4.949,5.159-5.019C620.759,83.152,623.289,85.286,623.425,87.988z"/>
				</g>
				<path style="fill:#38303B;" d="M609.413,79.283c0.189,1.424-0.356,2.657-1.218,2.755c-0.862,0.098-1.714-0.977-1.904-2.4
					c-0.19-1.424,0.356-2.657,1.218-2.755C608.371,76.785,609.223,77.859,609.413,79.283z"/>
				<g>
					<g>
						<path style="fill:#38303B;" d="M604.814,77.953c0.826-0.602,1.961-0.801,2.961-0.839c0.947-0.036,2.086,0.041,2.887,0.604
							c0.374,0.263,0.728-0.351,0.358-0.612c-0.897-0.631-2.184-0.741-3.245-0.701c-1.116,0.042-2.396,0.262-3.319,0.935
							C604.091,77.607,604.444,78.223,604.814,77.953L604.814,77.953z"/>
					</g>
				</g>
				<g>
					<path style="fill:#38303B;" d="M594.061,70.608c9.172,0.732,16.053-2.097,19.789-6.787c-0.512,2.156-1.415,4.211-2.644,6.016
						c10.48,0.013,14.407,3.3,23.942,7.793c0.317,0.149,2.597-2.715,2.936-2.809c0.589-0.163,5.37,1.143,5.452,0.498
						c0.644-5.049,0.232-10.482-2.451-14.631c-1.406-2.174-3.914-5.461-5.993-6.892c-7.022-4.831-15.4-5.126-23.544-2.741
						c-8.144,2.385-15.273,8.191-17.379,19.489"/>
				</g>
			</g>
			<g>
				<g>
					<path style="fill:#3C7F5F;" d="M637.838,120.832c-8.133,3.472-17.63,3.312-25.63-0.465c-3.244-1.532-1.039-6.667,2.225-5.126
						c6.708,3.167,14.462,3.333,21.288,0.419C639.034,114.246,641.143,119.422,637.838,120.832L637.838,120.832z"/>
				</g>
			</g>
			<g>
				<defs>
					<path id="SVGID_1_" d="M603.927,99.667c-0.627-1.623-1.14-3.291-1.534-4.986c-0.034-0.146-0.066-0.306-0.002-0.442
						c0.091-0.192,0.329-0.255,0.537-0.295c1.898-0.371,3.796-0.742,5.694-1.112c0.462-0.09,0.935-0.181,1.401-0.112
						c0.466,0.069,0.931,0.331,1.115,0.764c0.244,0.576-0.067,1.227-0.405,1.753c-1.505,2.341-3.732,4.211-6.298,5.288"/>
				</defs>
				<clipPath id="SVGID_00000076576326170646490740000003500151043753846167_">
					<use xlink:href="#SVGID_1_"  style="overflow:visible;"/>
				</clipPath>
				<g style="clip-path:url(#SVGID_00000076576326170646490740000003500151043753846167_);">
					<path style="fill:#E66E60;" d="M595.441,95.759c3.282,3.189,6.366,3.698,10.089,2.511c1.367-0.436,3.356-2.665,3.768-4.078
						c-4.384,2.634-9.162,3.276-13.944,1.351"/>
					<path style="fill:#FFFFFF;" d="M595.441,95.759c3.188,1.482,6.876,1.677,11.607,0.096c1.071-0.358,2.117-0.953,2.584-1.817
						c-4.471,1.755-9.969,2.339-14.656,1.374L595.441,95.759z"/>
				</g>
			</g>
		</g>
	</g>
	<g>
		<g>
			<g>
				<path style="fill:#38303B;" d="M331.502,131.494c-3.234-6.134,7.352-17.886,8.325-25.199c0.186-1.395,0.285-2.839-0.174-4.181
					c-0.54-1.581-1.803-2.873-2.522-4.394c-2.262-4.785,1.26-10.034,2.445-15.131c1.349-5.806-0.274-12.395,3.303-17.355
					c1.209-1.676,2.916-2.994,4.599-4.288c2.644-2.032,5.289-4.064,7.933-6.096c4.069-3.127,7.9-5.081,13.139-4.306
					c6.593,0.975,10.783,3.692,13.787,6.128c3.491,2.83,4.575,4.188,8.059,7.025c6.046,4.925,9.248,12.599,8.321,19.94
					c-0.323,2.556-1.11,5.045-1.51,7.591c-0.718,4.572-0.158,9.305,1.614,13.633c1.458,3.561,3.7,6.811,5.366,10.296
					c1.665,3.485,2.378,12.909-0.516,17.6"/>
			</g>
			<g>
				<g>
					<path style="fill:#F4966B;" d="M380.14,121.304c-2.253-6.41-4.08-14.609-4.612-18.907c-0.026-0.21-0.055-0.429-0.156-0.604
						c-0.175-0.301-0.509-0.382-0.809-0.425c-2.497-0.354-5.035,0.302-7.522-0.154c-2.034-0.373-4.082-1.482-6.069-0.884
						c-0.201,0.061-0.41,0.148-0.541,0.342c-0.156,0.232-0.163,0.558-0.161,0.859c0.009,1.33,0.068,2.659,0.128,3.987
						c0.18,4.057-1.808,14.801-1.627,18.858"/>
				</g>
				<g>
					<path style="fill:#ED825D;" d="M360.114,99.483c0.13-0.194,0.339-0.281,0.541-0.342c1.987-0.599,4.035,0.511,6.069,0.884
						c2.487,0.456,5.025-0.2,7.522,0.154c0.3,0.043,0.634,0.124,0.809,0.425c0.102,0.175,0.13,0.393,0.156,0.603
						c0.263,2.127,0.885,4.037,1.149,6.164c-2.057,1.569-4.716,2.847-7.14,3.067c-3.328,0.303-6.858-1.207-9.056-4.218
						c-0.028-0.631-0.056-1.261-0.084-1.892c-0.059-1.328-0.118-2.657-0.127-3.987C359.95,100.042,359.958,99.715,360.114,99.483z"
						/>
				</g>
			</g>
			<g>
				<g>
					<path style="fill:#F4966B;" d="M350.93,85.91c0.411,13.051,9.751,23.348,17.776,23.095
						c8.025-0.253,16.698-11.117,16.287-24.168c-0.411-13.051-9.729-22.643-17.754-22.391
						C359.215,62.699,350.519,72.858,350.93,85.91z"/>
				</g>
				<g>
					<g>
						<path style="fill:#F4966B;" d="M352.022,90.967c-2.118-0.572-3.991-2.342-4.232-4.522c-0.24-2.18,1.549-4.505,3.742-4.44"/>
					</g>
					<g>
						<path style="fill:#F4966B;" d="M383.692,89.969c2.077-0.704,3.836-2.589,3.939-4.78c0.103-2.191-1.83-4.399-4.014-4.196"/>
					</g>
				</g>
			</g>
			<g>
				<path style="fill:#38303B;" d="M375.599,82.649c0.041,1.314,0.656,2.362,1.373,2.339c0.717-0.023,1.265-1.106,1.223-2.421
					c-0.042-1.314-0.656-2.362-1.373-2.339C376.105,80.251,375.558,81.335,375.599,82.649z"/>
			</g>
			<g>
				<path style="fill:#38303B;" d="M358.727,83.061c0.041,1.314,0.656,2.362,1.373,2.339c0.717-0.023,1.264-1.106,1.223-2.421
					c-0.041-1.314-0.656-2.362-1.373-2.339C359.233,80.663,358.685,81.747,358.727,83.061z"/>
			</g>
			<g>
				<path style="fill:#38303B;" d="M354.708,78.523c-0.093,0.226,0.08,0.347,0.168,0.29c0.184-0.12,0.229-0.39,0.739-0.738
					c1.828-1.247,4.314-1.384,6.381-0.593c0.317,0.121,0.813,0.481,1.145,0.553c0.169,0.036,0.342-0.123,0.337-0.248
					c-0.006-0.146-0.082-0.28-0.166-0.398c-0.358-0.503-0.922-0.82-1.5-1.037c-1.865-0.7-4.057-0.462-5.728,0.622
					c-0.625,0.406-1.074,0.874-1.364,1.531"/>
			</g>
			<g>
				<g>
					<path style="fill:#38303B;" d="M374.238,82.031c0.569-0.928,1.619-1.52,2.713-1.49c1.064,0.029,2.053,0.655,2.58,1.569
						c0.228,0.395,0.84,0.038,0.612-0.358c-0.653-1.132-1.881-1.884-3.192-1.92c-1.342-0.036-2.629,0.706-3.325,1.841
						C373.387,82.063,373.999,82.42,374.238,82.031L374.238,82.031z"/>
				</g>
			</g>
			<g>
				<g>
					<path style="fill:#38303B;" d="M363.217,82.021c-0.765-1.087-2.081-1.769-3.424-1.648c-1.304,0.118-2.494,0.923-3.077,2.098
						c-0.202,0.407,0.409,0.767,0.612,0.358c0.468-0.943,1.402-1.647,2.465-1.747c1.083-0.102,2.186,0.407,2.812,1.297
						C362.866,82.749,363.481,82.395,363.217,82.021L363.217,82.021z"/>
				</g>
			</g>
			<g>
				<g>
					<path style="fill:#ED825D;" d="M368.83,94.19c1.08-0.01,2.104-0.662,2.426-1.724c0.15-0.493,0.141-1.044-0.025-1.532
						c-0.204-0.602-0.629-0.967-1.052-1.418c-1.02-1.087-0.931-2.881-1.082-4.274c-0.179-1.651-0.358-3.303-0.537-4.955
						c-0.049-0.449-0.758-0.454-0.709,0c0.148,1.362,0.296,2.725,0.443,4.088c0.135,1.246,0.195,2.53,0.446,3.759
						c0.095,0.466,0.245,0.933,0.501,1.337c0.317,0.5,0.848,0.822,1.152,1.324c0.739,1.22-0.191,2.673-1.563,2.686
						C368.374,93.485,368.373,94.194,368.83,94.19L368.83,94.19z"/>
				</g>
			</g>
			<g>
				<path style="fill:#38303B;" d="M381.444,77.681c0.107,0.219-0.058,0.352-0.15,0.3c-0.191-0.108-0.253-0.375-0.784-0.69
					c-1.903-1.129-4.393-1.11-6.405-0.19c-0.309,0.141-0.781,0.531-1.108,0.624c-0.167,0.047-0.349-0.102-0.352-0.227
					c-0.003-0.146,0.064-0.284,0.141-0.408c0.325-0.524,0.869-0.876,1.432-1.129c1.818-0.816,4.02-0.717,5.756,0.26
					c0.65,0.366,1.127,0.805,1.458,1.443"/>
			</g>
			<g>
				<path style="fill:#E66E60;" d="M361.517,97.183c3.154,3.958,6.216,4.76,9.985,3.613c1.384-0.421,3.461-2.905,3.93-4.535
					c-4.487,2.8-9.29,3.239-13.994,0.664"/>
				<path style="fill:#FFFFFF;" d="M361.517,97.183c3.128,1.95,6.807,2.422,11.6,0.879c1.085-0.35,2.155-0.978,2.656-1.961
					c-4.54,1.763-10.059,2.085-14.706,0.643L361.517,97.183z"/>
			</g>
			<g>
				<path style="fill:#ED825D;" d="M353.869,93.216c0.002,1.865,1.591,3.374,3.55,3.372c1.959-0.002,3.545-1.515,3.543-3.38
					c-0.002-1.864-1.591-3.374-3.55-3.372C355.453,89.839,353.867,91.352,353.869,93.216z"/>
			</g>
			<g>
				<path style="fill:#ED825D;" d="M375.862,92.749c0.002,1.864,1.591,3.374,3.549,3.372c1.959-0.002,3.545-1.515,3.543-3.38
					c-0.002-1.865-1.591-3.374-3.55-3.372C377.446,89.371,375.86,90.884,375.862,92.749z"/>
			</g>
			<g>
				<path style="fill:#38303B;" d="M351.537,74.962c4.169-0.556,8.053-2.98,10.385-6.48c-0.19,1.513-0.674,2.988-1.419,4.317
					c7.671-0.829,15.511-0.06,22.875,2.243c0.245,0.077,0.512,0.155,0.752,0.063c0.417-0.159,0.5-0.704,0.505-1.15
					c0.038-3.497-0.729-7.173-3.049-9.79c-1.215-1.371-2.792-2.379-4.435-3.189c-5.553-2.736-12.252-3.302-18.008-1.023
					c-5.756,2.279-10.37,7.529-11.382,13.636"/>
			</g>
		</g>
		<g>
			<g>
				<g>
					<path style="fill:#F4966B;" d="M388.301,444.122c1.055-19.337,2.11-38.674,3.165-58.011
						c1.657-30.369,3.314-60.738,4.971-91.106c0.138-2.534-0.302-5.812-3.084-6.448c-1.078-0.247-2.215,0.023-3.265,0.347
						c-8.287,2.557-14.971,8.841-17.341,16.303l-0.401,8.7c2.274,42.881,4.151,85.779,5.632,128.687"/>
				</g>
				<g>
					<path style="fill:#F2E2C8;" d="M388.829,452.405c0.804-12.354,1.608-24.708,2.413-37.062c0.127-1.956,0.067-4.424-1.151-5.237
						c-0.526-0.351-1.133-0.265-1.708-0.172c-2.907,0.471-5.369,0.052-8.276,0.523c-1.047,0.17-3.264-0.445-4.045,0.595
						c-0.94,1.251-0.454,5.032-0.475,6.895c-0.139,12.465,3.363,24.81,2.118,37.141"/>
					<g>
						<path style="fill:#38303B;" d="M413.231,460.318c-6.132,0.234-11.157,0.418-17.289,0.653
							c-1.875,0.072-16.768-0.139-18.912-0.093c-0.708,0.015-1.487,0.006-2.021-0.461c-0.628-0.549-0.666-1.5-0.628-2.335
							c0.15-3.303,0.746-6.586,1.766-9.729c0.232-0.715,0.576-1.514,1.291-1.738c0.657-0.206,1.34,0.167,1.94,0.506
							c2.429,1.371,2.594,1.358,5.47,0.721c0.707-0.157,3.455-1.064,4.124-1.342c0.74-0.307,1.579-0.179,2.366-0.033
							c6.792,1.256,13.417,3.42,19.646,6.416c1.414,0.68,2.874,1.462,3.713,2.792c0.84,1.33,0.777,3.363-0.535,4.225"/>
					</g>
				</g>
			</g>
			<g>
				<g>
					<path style="fill:#F4966B;" d="M351.58,443.101c-0.931-19.337-1.863-38.674-2.794-58.011
						c-1.463-30.369-2.926-60.738-4.388-91.107c-0.122-2.534,0.266-5.812,2.722-6.448c0.951-0.246,1.955,0.023,2.883,0.347
						c7.316,2.557,13.217,8.841,15.309,16.303l0.354,8.7c-2.008,42.881-3.665,85.779-4.972,128.687"/>
				</g>
				<path style="fill:#F2E2C8;" d="M350.267,451.445c-0.856-12.076-1.712-24.151-2.568-36.226c-0.136-1.913-0.071-4.325,1.225-5.119
					c0.56-0.343,1.206-0.259,1.818-0.168c3.095,0.461,5.716,0.051,8.81,0.512c1.115,0.166,3.475-0.435,4.306,0.581
					c1,1.223,0.483,4.918,0.506,6.74c0.148,12.184-3.579,24.25-2.255,36.304"/>
				<g>
					<path style="fill:#38303B;" d="M327.7,461.082c5.989,0.234,10.896,0.418,16.885,0.653c1.832,0.072,16.377-0.139,18.471-0.093
						c0.691,0.015,1.452,0.006,1.974-0.461c0.613-0.549,0.65-1.5,0.613-2.335c-0.146-3.303-0.729-6.586-1.725-9.729
						c-0.227-0.715-0.562-1.514-1.26-1.738c-0.642-0.206-1.309,0.167-1.895,0.506c-2.372,1.371-2.534,1.358-5.342,0.721
						c-0.69-0.157-3.375-1.064-4.028-1.342c-0.723-0.307-1.542-0.178-2.311-0.033c-6.633,1.256-13.104,3.42-19.188,6.416
						c-1.381,0.68-2.807,1.462-3.626,2.792c-0.82,1.33-0.759,3.363,0.522,4.225"/>
				</g>
			</g>
		</g>
		<g>
			<g>
				<g>
					<path style="fill:#F4966B;" d="M328.496,171.912c-4.701,6.667-9.402,13.334-14.103,20.001c-1.544,2.19-3.131,4.424-5.308,5.987
						c-2.177,1.563-5.094,2.359-7.584,1.367c-4.231-1.686-6.101-7.539-4.532-11.815c4.262-11.612,10.96-23.739,18.415-33.731"/>
				</g>
				<g>
					<path style="fill:#F4966B;" d="M306.991,198.988c-3.07,2.78-14.603-1.952-24.058-9.434
						c-8.803-6.966-15.869-12.409-24.545-21.592c-1.56-1.652-3.266-3.721-3.034-5.999c0.229-2.246,2.079-1.448,3.784-2.543
						c0.645-0.414,1.345,0.047,4.539,2.345c11.876,8.543,26.298,14.848,39.257,21.8"/>
				</g>
				<g>
					<g>
						<path style="fill:#F4966B;" d="M271.488,168.053c-2.873-2.102-13.784-13.338-15.872-16.147
							c-2.259-3.038-4.304-4.792-7.317-7.105c-0.586-0.45-1.669,0.262-1.622,1.045c0.085,1.44,0.389,2.816,0.903,4.076
							c0.294,0.722-0.721,1.605-1.469,1.292c-0.558-0.234-1.056-0.636-1.462-1.031c-2.537-2.472-4.932-4.07-7.469-6.541
							c-1.071-1.044,5.651-0.7,4.308-1.438c-0.631-0.347-0.89,0.333-0.63,0.99c0.225,0.568,1.561,2.513,1.324,2.323
							c-0.531-0.425-1.582,0.217-1.137,1.225c1.88,4.264-2.672,7.2-0.215,9.496c6.18,5.774,18.715,11.476,24.954,17.707"/>
					</g>
				</g>
				<g>
					<g>
						<path style="fill:#FFB850;" d="M238.635,124.615c-0.952-2.213,0.29-4.761,2.068-6.481c0.72-0.696,1.543-1.321,2.501-1.697
							c1.693-0.664,3.698-0.473,5.325,0.319c1.628,0.792,2.894,2.137,3.737,3.653c0.344,0.619,0.625,1.277,0.722,1.967
							c0.256,1.817-0.771,3.555-1.762,5.141"/>
					</g>
					<g>
						<path style="fill:#EA8039;" d="M241.584,140.502c-1.609-0.466-7.333-4.266-8.997-7.466c-0.733-1.408-0.856-3.74-0.458-5.259
							c0.403-1.535,1.077-3.079,2.363-4.115c2.209-1.78,6.186-2.504,8.613-0.99c2.427,1.515,3.476,4.989,4.514,7.527"/>
					</g>
					<g>
						<path style="fill:#ED5A36;" d="M253.223,136.353c2.881-1.33,4.143-4.912,3.103-7.775c-1.04-2.863-3.296-5.257-6.456-5.778
							c-0.987-0.163-2.735,0.181-3.673,0.513c-0.726,0.257-1.353,0.717-1.903,1.233c-2.081,1.951-3.158,4.814-2.848,7.566
							c0.31,2.752,2.002,5.337,4.471,6.832"/>
					</g>
					<g>
						<path style="fill:#F2E2C8;" d="M233.025,134.602c2.757,11.029,6.518,21.924,11.25,32.592c0.406,0.916,1.72,0.929,2.139,0.019
							c4.512-9.794,7.831-19.878,9.904-30.097c0.207-1.022,0.225-2.316-1.033-2.796c-0.711-0.271-1.57-0.156-2.358-0.048
							c-5.82,0.8-11.828,0.874-17.682,0.218c-0.641-0.072-1.287-0.057-1.921,0.058L233.025,134.602z"/>
					</g>
					<g>
						<defs>
							<path id="SVGID_00000064311620147011749830000002207553218595868555_" d="M233.025,134.602
								c2.757,11.029,6.518,21.924,11.25,32.592c0.406,0.916,1.72,0.929,2.139,0.019c4.512-9.794,7.831-19.878,9.904-30.097
								c0.207-1.022,0.225-2.316-1.033-2.796c-0.711-0.271-1.57-0.156-2.358-0.048c-5.82,0.8-11.828,0.874-17.682,0.218
								c-0.641-0.072-1.287-0.057-1.921,0.058L233.025,134.602z"/>
						</defs>
						<clipPath id="SVGID_00000164515547959910278540000011651285604600289199_">
							<use xlink:href="#SVGID_00000064311620147011749830000002207553218595868555_"  style="overflow:visible;"/>
						</clipPath>
						<g style="clip-path:url(#SVGID_00000164515547959910278540000011651285604600289199_);">
							<g>
								<g>
									<path style="fill:#E5D2B7;" d="M250.674,163.04c-5.8-1.736-10.94-5.287-14.643-10.073
										c-0.393-0.508-1.096,0.204-0.707,0.707c3.804,4.916,9.132,8.549,15.084,10.33
										C251.026,164.19,251.29,163.225,250.674,163.04L250.674,163.04z"/>
								</g>
							</g>
							<g>
								<g>
									<path style="fill:#E5D2B7;" d="M252.555,157.428c-6.716-2.562-12.722-6.873-17.344-12.374
										c-1.321-1.572-2.516-3.243-3.591-4.991c-0.337-0.547-1.202-0.046-0.864,0.505c3.871,6.295,9.362,11.557,15.814,15.163
										c1.838,1.027,3.752,1.911,5.719,2.661C252.891,158.622,253.151,157.656,252.555,157.428L252.555,157.428z"/>
								</g>
							</g>
							<g>
								<g>
									<path style="fill:#E5D2B7;" d="M254.863,151.528c-6.719-2.663-12.785-6.865-17.741-12.116
										c-1.45-1.536-2.803-3.162-4.054-4.865c-0.377-0.513-1.245-0.015-0.863,0.505c4.447,6.057,10.155,11.17,16.748,14.793
										c1.823,1.002,3.71,1.88,5.645,2.647C255.196,152.729,255.456,151.763,254.863,151.528L254.863,151.528z"/>
								</g>
							</g>
							<g>
								<g>
									<path style="fill:#E5D2B7;" d="M256.292,145.531c-6.988-3.762-14.448-7.838-18.612-14.891
										c-0.327-0.554-1.192-0.051-0.863,0.505c4.255,7.207,11.825,11.403,18.971,15.249
										C256.354,146.699,256.86,145.836,256.292,145.531L256.292,145.531z"/>
								</g>
							</g>
							<g>
								<g>
									<path style="fill:#E5D2B7;" d="M257.993,139.82c-5.101-2.539-9.673-6.016-13.481-10.254
										c-0.431-0.48-1.136,0.229-0.707,0.707c3.859,4.295,8.515,7.838,13.684,10.411
										C258.063,140.97,258.57,140.107,257.993,139.82L257.993,139.82z"/>
								</g>
							</g>
							<g>
								<g>
									<path style="fill:#E5D2B7;" d="M229.447,145.07c6.333-3.251,11.785-8.065,15.82-13.927c0.366-0.531-0.5-1.032-0.863-0.505
										c-3.94,5.723-9.283,10.397-15.462,13.568C228.369,144.501,228.875,145.364,229.447,145.07L229.447,145.07z"/>
								</g>
							</g>
							<g>
								<g>
									<path style="fill:#E5D2B7;" d="M233.031,149.984c3.999-1.298,7.347-3.886,10.506-6.581c3.574-3.051,7.02-6.251,10.336-9.58
										c0.455-0.456-0.252-1.164-0.707-0.707c-3.21,3.222-6.541,6.322-9.991,9.285c-3.127,2.685-6.435,5.329-10.409,6.619
										C232.156,149.217,232.416,150.183,233.031,149.984L233.031,149.984z"/>
								</g>
							</g>
							<g>
								<g>
									<path style="fill:#E5D2B7;" d="M236.041,156.716c7.018-3.737,13.634-8.211,19.715-13.335
										c1.732-1.459,3.417-2.972,5.059-4.532c0.467-0.444-0.241-1.151-0.707-0.707c-5.729,5.445-12.022,10.281-18.769,14.401
										c-1.901,1.161-3.837,2.262-5.803,3.309C234.968,156.155,235.472,157.019,236.041,156.716L236.041,156.716z"/>
								</g>
							</g>
							<g>
								<g>
									<path style="fill:#E5D2B7;" d="M238.968,162.898c7.246-3.055,13.829-7.537,19.303-13.188
										c0.448-0.462-0.258-1.17-0.707-0.707c-5.346,5.518-11.78,9.945-18.862,12.93
										C238.119,162.18,238.375,163.148,238.968,162.898L238.968,162.898z"/>
								</g>
							</g>
						</g>
					</g>
				</g>
				<g>
					<g>
						<path style="fill:#F4966B;" d="M237.471,154.103c1.008,0.4,2.017,0.799,3.025,1.199c0.913,0.362,1.893,0.729,2.837,0.477
							c0.495-0.132,0.981-0.48,1.123-1.012c0.177-0.662-0.226-1.34-0.675-1.827c-0.648-0.702-1.428-1.239-2.219-1.735
							c-1.495-0.936-3.056-1.747-4.664-2.423c-0.8-0.336-0.804-0.884-1.66-0.924c-0.269-0.013-1.077,0.102-1.279,0.487
							c-0.17,0.325-0.215,1.099-0.064,1.578c0.439,1.389,1.833,2.628,3.73,3.759"/>
					</g>
					<g>
						<path style="fill:#F4966B;" d="M235.141,146.9c2.386,3.561,4.432,4.58,8.474,4.806c0.421,0.024,0.87,0.018,1.227-0.228
							c0.585-0.403,0.693-1.336,0.413-2.026c-0.28-0.69-0.847-1.185-1.409-1.625c-2.64-2.067-5.661-3.554-8.831-4.346
							c-0.62-0.155-1.433-0.193-1.721,0.425c-0.134,0.287-0.21,0.973-0.15,1.288c0.493,2.596,3.117,3.898,5.275,4.229"/>
					</g>
					<g>
						<path style="fill:#F4966B;" d="M232.401,140.019c0.272,1.428,1.305,2.566,2.42,3.374c1.116,0.808,2.39,1.31,3.65,1.805
							c1.554,0.61,3.138,1.227,4.789,1.293c0.728,0.029,1.63-0.195,1.813-0.964c0.165-0.694-0.379-1.331-0.89-1.782
							c-3.064-2.703-6.553-4.604-10.447-5.285c-0.259-0.045-0.755,0.104-0.975,0.261
							C232.54,138.878,232.296,139.469,232.401,140.019z"/>
					</g>
					<g>
						<path style="fill:#F4966B;" d="M240.046,154.607c0.367,0.495,0.746,1.196,0.406,1.714c-0.145,0.22-0.388,0.336-0.627,0.408
							c-0.977,0.296-2.087-0.002-2.825-0.76c-0.738-0.757-1.383-2.237-0.768-3.507"/>
					</g>
				</g>
			</g>
			<g>
				<g>
					<path style="fill:#F4966B;" d="M406.084,170.321c4.114,7.045,8.227,14.089,12.341,21.134c1.352,2.314,2.741,4.675,4.776,6.419
						c2.035,1.744,4.874,2.787,7.439,2.011c4.36-1.318,6.723-6.99,5.525-11.384c-3.253-11.934-8.89-24.589-15.463-35.182"/>
				</g>
				<g>
					<path style="fill:#F4966B;" d="M426.342,199.499c3.07,2.78,14.603-1.952,24.058-9.434c8.803-6.966,15.869-12.408,24.545-21.592
						c1.56-1.652,3.266-3.72,3.034-5.999c-0.229-2.246-2.079-1.448-3.784-2.543c-0.645-0.414-1.345,0.047-4.539,2.345
						c-11.876,8.543-26.298,14.848-39.257,21.8"/>
				</g>
				<g>
					<path style="fill:#F4966B;" d="M475.275,167.991c8.426-7.404,17.106-11.362,30.255-14.809c2.274-0.596,4.913-1.489,6.766-2.936
						c0.418-0.326,1.018-1.49,0.789-1.968c-0.18-0.374-0.656-0.473-1.068-0.525c-7.935-0.987-11.245-0.395-19.125,0.961
						c-2.67,0.459-5.493-0.675-7.787,0.766c-1.556,0.977-2.794-1.818-4.085-0.511c-1.929,1.953-7.901,10.302-9.83,12.255"/>
				</g>
				<g>
					<g>
						<g>
							<path style="fill:#FFB850;" d="M527.938,130.378c1.232-1.307,2.498-2.67,3.083-4.365c0.585-1.696,0.291-3.827-1.16-4.85
								c-1.099-0.775-2.581-0.751-3.906-0.469c-2.746,0.585-5.195,2.112-7.802,3.169c-4.1,1.663-8.657,2.152-12.989,1.394
								c-1.87-0.327-3.808-0.878-5.632-0.318c-3.181,0.977-4.525,4.954-4.025,8.235c0.314,2.064,1.194,4.083,2.73,5.481
								s3.773,2.092,5.784,1.512"/>
						</g>
						<g>
							<path style="fill:#ED5A36;" d="M531.641,130.622c1.35-0.849,2.757-1.757,3.518-3.159c0.761-1.401,0.593-3.444-0.781-4.253
								c-1.099-0.647-2.494-0.303-3.705,0.097c-4.379,1.447-8.583,3.399-12.999,4.727c-4.416,1.328-9.17,2.014-13.635,0.861
								c-2.901-0.749-5.999-2.246-8.722-0.997c-0.543,0.249-1.067,0.64-1.25,1.208c-0.133,0.414-0.272,1.387-0.165,1.809
								c1.023,4.008,5.467,5.733,9.43,6.918c4.982,1.489,11.13,1.776,14.615-2.083"/>
						</g>
						<g>
							<path style="fill:#FFB850;" d="M517.711,145.709c7.393-1.494,12.337-4.65,15.802-10.409c1.169-1.943,1.996-4.494,0.768-6.4
								c-0.904-1.404-2.711-2.008-4.378-1.92c-1.667,0.088-3.243,0.753-4.78,1.406c-6.088,2.589-12.627,5.207-19.133,4.008
								c-2.331-0.43-4.578-1.344-6.944-1.476c-2.366-0.132-5.036,0.78-5.991,2.949c-0.853,1.936-0.067,4.232,1.178,5.942
								c2.423,3.328,6.423,5.227,10.474,5.959c4.051,0.731,8.209,0.423,12.314,0.112"/>
						</g>
					</g>
					<path style="fill:#3C7F5F;" d="M536.977,150.204h-79.66c-1.504,0-2.723-1.219-2.723-2.723l0,0c0-1.504,1.219-2.723,2.723-2.723
						h79.66c1.504,0,2.723,1.219,2.723,2.723l0,0C539.701,148.985,538.481,150.204,536.977,150.204z"/>
					<g>
						<g>
							<path style="fill:#F2E2C8;" d="M475.769,111.687c-0.758-6.198-1.516-12.396-2.274-18.594
								c-0.176-1.436-0.322-2.878-0.53-4.309c-0.121-0.837-0.331-1.728-1.042-2.267c-0.878-0.666-2.305-0.475-3.331-0.449
								c-1.454,0.037-2.896,0.199-4.33,0.436c-0.972,0.16-0.56,1.639,0.408,1.48c1.299-0.214,2.605-0.347,3.922-0.381
								c0.566-0.015,1.291-0.115,1.844,0.012c0.832,0.192,0.887,0.57,1.007,1.278c0.425,2.5,0.622,5.063,0.93,7.581
								c0.62,5.071,1.24,10.142,1.861,15.214C474.353,112.655,475.888,112.667,475.769,111.687L475.769,111.687z"/>
						</g>
					</g>
					<polygon style="fill:#F2E2C8;" points="471.491,144.49 490.299,144.684 492.76,99.92 469.953,99.685 					"/>
				</g>
			</g>
			<g>
				<g>
					<path style="fill:#F4966B;" d="M344.074,122.904c12.917-5.613,27.92-7.25,41.179-2.502c4.184,1.498,8.516,4.029,9.819,8.277
						c1.243,4.051-0.693,8.432-3.332,11.747c-5.114,6.426-13.105,10.471-21.311,10.788c-6.054,0.234-12.027-1.456-17.673-3.653
						c-2.688-1.046-5.368-2.234-7.6-4.061c-2.232-1.827-3.997-4.379-4.333-7.244c-0.362-3.078,0.922-6.085,2.177-8.918"/>
				</g>
				<g id="dress_6_">
					<g>
						<path style="fill:#05514D;" d="M310.566,158.168c2.993,6.322,9.966,10.918,14.687,16.316c0.974,1.114,2.676,1.212,3.811,0.263
							l2.089-1.746c0.375-0.313,0.947-0.147,1.107,0.314c2.877,8.287,5.758,14.246,9.94,21.73c0.457,0.819,0.78,1.73,0.909,2.668
							c0.194,1.417-0.232,2.838-0.645,4.203c-11.97,39.514-18.389,80.849-18.988,122.28c28.027,13.194,61.046,14.412,89.898,3.316
							c1.251-0.481,2.57-1.045,3.328-2.189c0.766-1.158,0.794-2.662,0.786-4.068c-0.237-41.039-7.52-82.023-21.399-120.431
							c-0.322-0.889-0.652-1.829-0.506-2.767c0.131-0.845,0.68-1.538,1.107-2.266c4.655-7.933,6.785-11.139,9.564-19.433
							c0.109-0.326,0.573-0.309,0.659,0.023c0.223,0.854,0.573,1.566,0.9,2.096c0.388,0.627,1.21,0.802,1.826,0.397
							c4.24-2.789,13.522-7.685,17.224-12.536c2.221-2.91,0.255-6.809,0.085-8c-0.146-1.025-2.276-5.225-3.234-6.809
							c-8.34-13.787-19.511-23.596-33.362-29.277c-2.374-0.974-0.213-0.101-1.556,2.148c-4.101,6.868-8.566,12.89-16.146,14.363
							c-8.983,1.745-20.285-3.338-23.489-12.255c-0.794-2.21-1.702-3.702-2.468-5.362c-0.651-1.411-5.021,0.936-6.808,1.957
							c-13.89,7.937-22.809,20-29.192,35.064"/>
					</g>
					<g>
						<g>
							<path style="fill:#F2E2C8;" d="M345.065,121.085c-1.543,4.712-0.507,9.909,1.371,14.498c1.518,3.708,3.903,7.04,7.1,9.455
								c1.328,1.003,3.46,2.402,5.285,2.662c3.575,0.511,5.745,0.128,7.787-1.787c1.431-1.342,2.642-3.266,3.319-5.106
								c0.564,1.126,1.732,2.62,2.553,3.574c2.401,2.791,7.032,3.876,10.468,2.553c3.436-1.323,6.352-4.397,7.787-7.787
								c1.436-3.39,1.637-7.873,1.723-11.553c0.043-1.845-0.064-3.511-0.319-4.532c-0.091-0.365-0.543-1.443-0.851-1.66
								c-1.11-0.782-1.587-1.008-2.085,0.255c-3.319,8.426-10.17,12.596-18,13.277c-6.905,0.6-14.822-0.867-19.006-6.393
								c-0.856-1.13-1.547-2.374-2.234-3.613c-0.708-1.275-1.416-2.55-2.123-3.825c-0.254-0.458-0.529-0.938-0.984-1.198
								c-0.454-0.26-1.141-0.189-1.372,0.28"/>
						</g>
						<g>
							<g>
								<path style="fill:#F09532;" d="M372.481,158.849c0,1.222-0.991,2.213-2.213,2.213c-1.222,0-2.213-0.991-2.213-2.213
									c0-1.222,0.991-2.213,2.213-2.213C371.49,156.636,372.481,157.626,372.481,158.849z"/>
								<path style="fill:#F09532;" d="M372.481,169.572c0,1.222-0.991,2.213-2.213,2.213c-1.222,0-2.213-0.991-2.213-2.213
									c0-1.222,0.991-2.213,2.213-2.213C371.49,167.359,372.481,168.35,372.481,169.572z"/>
								<path style="fill:#F09532;" d="M372.481,180.806c0,1.222-0.991,2.213-2.213,2.213c-1.222,0-2.213-0.991-2.213-2.213
									c0-1.222,0.991-2.213,2.213-2.213C371.49,178.593,372.481,179.584,372.481,180.806z"/>
							</g>
						</g>
						<g>
							<defs>
								<path id="SVGID_00000173144661463634143830000016396535387303443860_" d="M310.566,158.168
									c2.993,6.322,9.966,10.918,14.687,16.316c0.974,1.114,2.676,1.212,3.811,0.263l2.089-1.746
									c0.375-0.313,0.947-0.147,1.107,0.314c2.877,8.287,5.758,14.246,9.94,21.73c0.457,0.819,0.78,1.73,0.909,2.668
									c0.194,1.417-0.232,2.838-0.645,4.203c-11.97,39.514-18.389,80.849-18.988,122.28c28.027,13.194,61.046,14.412,89.898,3.316
									c1.251-0.481,2.57-1.045,3.328-2.189c0.766-1.158,0.794-2.662,0.786-4.068c-0.237-41.039-7.52-82.023-21.399-120.431
									c-0.322-0.889-0.652-1.829-0.506-2.767c0.131-0.845,0.68-1.538,1.107-2.266c4.655-7.933,6.785-11.139,9.564-19.433
									c0.109-0.326,0.573-0.309,0.659,0.023c0.223,0.854,0.573,1.566,0.9,2.096c0.388,0.627,1.21,0.802,1.826,0.397
									c4.24-2.789,13.522-7.685,17.224-12.536c2.221-2.91,0.255-6.809,0.085-8c-0.146-1.025-2.276-5.225-3.234-6.809
									c-8.34-13.787-19.511-23.596-33.362-29.277c-2.374-0.974-0.213-0.101-1.556,2.148c-4.101,6.868-8.566,12.89-16.146,14.363
									c-8.983,1.745-20.285-3.338-23.489-12.255c-0.794-2.21-1.702-3.702-2.468-5.362c-0.651-1.411-5.021,0.936-6.808,1.957
									c-13.89,7.937-22.809,20-29.192,35.064"/>
							</defs>
							<clipPath id="SVGID_00000149367712969929066510000013183249810094433925_">
								<use xlink:href="#SVGID_00000173144661463634143830000016396535387303443860_"  style="overflow:visible;"/>
							</clipPath>
							<g style="clip-path:url(#SVGID_00000149367712969929066510000013183249810094433925_);">
								<g>
									<g>
										<path style="fill:#F09532;" d="M341.505,198.548c13.681,5.688,28.923,7.176,43.453,4.278
											c4.206-0.839,8.324-2.057,12.321-3.609c1.285-0.499,0.726-2.594-0.576-2.088c-17.562,6.819-37.23,6.562-54.623-0.669
											C340.796,195.925,340.235,198.02,341.505,198.548L341.505,198.548z"/>
									</g>
									<g>
										<g>
											<path style="fill:#F09532;" d="M321.122,314.383c-1.18-1.095-2.36-2.191-3.54-3.286c-0.41-0.381-1.076,0.102-0.785,0.606
												c3.388,5.879,10.243,8.323,16.452,9.958c7.729,2.035,15.626,3.43,23.581,4.204c8.023,0.781,16.107,0.92,24.153,0.426
												c7.978-0.49,15.921-1.6,23.726-3.323c7.87-1.737,15.602-4.102,23.089-7.085c0.932-0.371,1.859-0.753,2.784-1.142
												c0.584-0.246,0.327-1.214-0.266-0.964c-7.291,3.074-14.823,5.563-22.509,7.445c-7.678,1.88-15.502,3.157-23.379,3.819
												c-7.884,0.663-15.82,0.716-23.712,0.153c-7.921-0.565-15.795-1.758-23.525-3.579c-6.36-1.499-13.759-3.199-18.164-8.442
												c-0.517-0.615-0.966-1.278-1.367-1.974c-0.262,0.202-0.524,0.404-0.785,0.606c1.18,1.095,2.36,2.191,3.54,3.286
												C320.887,315.528,321.595,314.822,321.122,314.383L321.122,314.383z"/>
										</g>
										<g>
											<path style="fill:#F09532;" d="M317.547,304.707c6.745,3.817,14.169,6.263,21.8,7.54
												c7.747,1.297,15.643,1.462,23.471,0.984c7.955-0.486,15.859-1.625,23.701-3.019c7.62-1.354,15.289-2.764,22.723-4.943
												c7.189-2.107,14.219-5.073,20.132-9.75c0.738-0.584,1.455-1.195,2.152-1.827c0.478-0.433-0.231-1.139-0.707-0.707
												c-5.559,5.042-12.409,8.316-19.502,10.601c-7.212,2.324-14.694,3.747-22.133,5.129
												c-7.776,1.444-15.603,2.677-23.491,3.312c-7.73,0.623-15.542,0.681-23.243-0.321c-7.551-0.982-14.999-3.04-21.812-6.476
												c-0.873-0.441-1.735-0.904-2.586-1.386C317.49,303.527,316.986,304.39,317.547,304.707L317.547,304.707z"/>
										</g>
										<g>
											<path style="fill:#F09532;" d="M407.775,182.751c3.29-9.077,10.694-16.507,19.634-20.09
												c2.511-1.006,5.134-1.706,7.813-2.081c0.635-0.089,0.365-1.052-0.266-0.964c-9.85,1.376-18.851,7.243-24.388,15.463
												c-1.552,2.305-2.81,4.795-3.757,7.406C406.591,183.092,407.557,183.353,407.775,182.751L407.775,182.751z"/>
										</g>
										<g>
											<path style="fill:#F09532;" d="M406.624,182.695c0.889-10.393,7.466-19.921,16.524-24.955
												c2.555-1.42,5.298-2.46,8.154-3.084c0.628-0.137,0.362-1.101-0.266-0.964c-10.543,2.301-19.405,10.296-23.355,20.261
												c-1.109,2.799-1.8,5.743-2.057,8.742C405.57,183.336,406.57,183.332,406.624,182.695L406.624,182.695z"/>
										</g>
										<g>
											<path style="fill:#F09532;" d="M309.178,151.689c7.109,5.308,12.687,12.653,15.934,20.907
												c0.915,2.325,1.643,4.718,2.186,7.156c0.14,0.628,1.104,0.362,0.964-0.266c-1.978-8.88-6.493-17.149-12.847-23.656
												c-1.776-1.818-3.697-3.485-5.733-5.005C309.166,150.44,308.667,151.308,309.178,151.689L309.178,151.689z"/>
										</g>
										<g>
											<path style="fill:#F09532;" d="M312.412,145.117c9.279,5.858,13.838,16.392,16.893,26.501
												c0.888,2.938,1.668,5.908,2.423,8.883c0.158,0.623,1.123,0.359,0.964-0.266c-2.663-10.502-5.68-21.686-12.922-30.064
												c-1.984-2.295-4.287-4.298-6.853-5.918C312.371,143.909,311.869,144.774,312.412,145.117L312.412,145.117z"/>
										</g>
										<g>
											<path style="fill:#F09532;" d="M315.18,283.115c7.814,5.293,16.065,9.931,24.642,13.87
												c8.546,3.925,17.404,7.169,26.461,9.699c9.063,2.532,18.323,4.348,27.668,5.444c9.373,1.099,18.834,1.462,28.264,1.064
												c9.394-0.396,18.761-1.545,27.967-3.463c1.16-0.242,2.317-0.496,3.472-0.762c0.627-0.144,0.362-1.109-0.266-0.964
												c-9.156,2.105-18.478,3.445-27.855,4.018c-9.343,0.571-18.732,0.392-28.048-0.514
												c-9.314-0.906-18.556-2.548-27.615-4.894c-9.093-2.355-18.008-5.416-26.616-9.18c-8.575-3.75-16.852-8.186-24.703-13.28
												c-0.962-0.624-1.917-1.259-2.867-1.902C315.15,281.89,314.649,282.756,315.18,283.115L315.18,283.115z"/>
										</g>
									</g>
								</g>
							</g>
						</g>
						<g>
							<g>
								<path style="fill:#F2E2C8;" d="M370.235,200.955c-1.255-0.532-2.536-1.099-3.593-1.976c-0.456-0.378-0.88-0.816-1.164-1.342
									c-0.132-0.245-0.565-1.218-0.287-1.403c0.313-0.209,1.085,0.28,1.315,0.445c0.606,0.434,1.145,0.996,1.608,1.576
									c0.995,1.246,1.656,2.668,2.019,4.218c0.241,1.031,1.993,0.845,2.08-0.186c0.108-1.275,0.499-2.512,1.237-3.568
									c0.345-0.493,0.745-0.959,1.203-1.349c0.366-0.312,1.161-1.045,1.689-0.928c0.91,0.202-0.481,1.743-0.78,1.996
									c-1.303,1.099-2.642,2.158-3.962,3.236c-1.074,0.876,0.171,2.649,1.255,1.765c0.948-0.773,1.895-1.546,2.843-2.319
									c0.743-0.606,1.567-1.19,2.178-1.937c1.114-1.361,1.334-3.801-0.523-4.68c-1.886-0.893-4.004,0.922-5.139,2.276
									c-1.206,1.439-1.973,3.249-2.131,5.121c0.693-0.062,1.387-0.124,2.08-0.186c-0.498-2.127-1.589-4.066-3.099-5.638
									c-1.219-1.269-3.453-2.88-5.199-1.555c-1.755,1.331-0.646,3.978,0.536,5.29c1.319,1.463,3.128,2.346,4.914,3.104
									C370.595,203.459,371.52,201.5,370.235,200.955L370.235,200.955z"/>
							</g>
							<g>
								<path style="fill:#F2E2C8;" d="M365.95,214.578c0.371-2.04,1-4.004,1.898-5.874c0.435-0.904,0.922-1.788,1.475-2.625
									c0.273-0.413,0.561-0.817,0.86-1.211c0.267-0.351,0.594-0.977,1.036-1.087c-0.191,0.017-0.382,0.034-0.573,0.051
									c0.22,0.014,0.73,0.856,0.919,1.111c0.316,0.427,0.622,0.86,0.918,1.301c0.634,0.943,1.227,1.918,1.763,2.921
									c1.064,1.991,1.911,4.096,2.568,6.255c0.405,1.332,2.434,0.572,2.029-0.759c-1.186-3.896-3.031-7.6-5.446-10.881
									c-0.526-0.715-1.119-1.781-2.033-2.023c-1.151-0.305-1.938,0.568-2.582,1.387c-1.171,1.487-2.179,3.117-2.984,4.83
									c-0.927,1.972-1.589,4.073-1.979,6.216C363.57,215.563,365.701,215.95,365.95,214.578L365.95,214.578z"/>
							</g>
						</g>
					</g>
				</g>
			</g>
		</g>
	</g>
</g>
</svg>
